<?xml version="1.0" encoding="UTF-8" standalone="no"?>
<!DOCTYPE svg PUBLIC "-//W3C//DTD SVG 1.1//EN" "http://www.w3.org/Graphics/SVG/1.1/DTD/svg11.dtd">
<svg xmlns="http://www.w3.org/2000/svg" version="1.1" viewBox="0 0 500 450">
<g stroke-width="2.00" fill="none" stroke-linecap="butt">
<path stroke="#909090" vector-effect="non-scaling-stroke" d="
  M 212.76 167.88
  C 215.05 175.77 221.45 184.74 229.99 186.76
  C 248.87 191.23 266.22 182.88 274.67 165.69
  C 284.08 146.53 286.58 107.34 255.51 105.35
  Q 230.57 103.75 218.12 126.42
  C 211.61 138.26 209.07 155.19 212.76 167.88"
/>
<path stroke="#909090" vector-effect="non-scaling-stroke" d="
  M 189.15 151.08
  L 196.59 107.92
  A 1.00 1.00 0.0 0 0 195.60 106.75
  L 176.50 106.75
  A 1.02 1.00 20.3 0 0 175.74 107.09
  L 119.94 171.60
  Q 118.51 173.25 120.69 173.25
  L 158.34 173.25
  A 1.00 1.00 0.0 0 1 159.32 174.42
  L 157.46 185.34
  A 1.00 1.00 0.0 0 0 158.60 186.49
  Q 162.13 185.96 166.00 186.51
  Q 168.65 186.89 182.34 186.21
  A 1.01 1.01 0.0 0 0 183.28 185.38
  L 185.25 174.05
  A 1.01 1.00 -84.6 0 1 186.25 173.22
  L 196.57 173.33
  A 1.01 1.00 4.7 0 0 197.56 172.50
  L 200.90 153.42
  A 1.00 0.99 5.1 0 0 199.92 152.25
  L 190.14 152.25
  A 1.00 1.00 0.0 0 1 189.15 151.08"
/>
<path stroke="#909090" vector-effect="non-scaling-stroke" d="
  M 351.30 152.25
  A 0.31 0.31 0.0 0 1 350.99 151.89
  L 358.71 107.11
  A 0.31 0.31 0.0 0 0 358.40 106.75
  L 338.16 106.75
  A 0.31 0.31 0.0 0 0 337.93 106.86
  L 280.95 172.74
  A 0.31 0.31 0.0 0 0 281.19 173.25
  L 321.11 173.25
  A 0.31 0.31 0.0 0 1 321.42 173.61
  L 319.29 186.20
  A 0.31 0.31 0.0 0 0 319.60 186.57
  L 344.84 186.33
  A 0.31 0.31 0.0 0 0 345.14 186.08
  L 347.35 173.47
  A 0.31 0.31 0.0 0 1 347.66 173.21
  L 359.16 173.33
  A 0.31 0.31 0.0 0 0 359.47 173.07
  L 363.02 152.61
  A 0.31 0.31 0.0 0 0 362.71 152.25
  L 351.30 152.25"
/>
<path stroke="#909090" vector-effect="non-scaling-stroke" d="
  M 254.25 222.47
  A 0.27 0.27 0.0 0 0 253.98 222.20
  L 246.02 222.20
  A 0.27 0.27 0.0 0 0 245.75 222.47
  L 245.75 309.83
  A 0.27 0.27 0.0 0 0 246.02 310.10
  L 253.98 310.10
  A 0.27 0.27 0.0 0 0 254.25 309.83
  L 254.25 222.47"
/>
<path stroke="#909090" vector-effect="non-scaling-stroke" d="
  M 246.27 381.78
  C 251.94 384.88 254.26 382.19 254.26 376.84
  Q 254.25 365.15 254.23 353.45
  A 1.00 0.99 -0.0 0 0 253.23 352.46
  L 246.75 352.46
  A 1.00 1.00 0.0 0 0 245.75 353.46
  L 245.75 380.90
  A 1.01 1.00 14.7 0 0 246.27 381.78"
/>
<path stroke="#909090" vector-effect="non-scaling-stroke" d="
  M 253.31 127.19
  C 247.51 123.74 241.89 129.16 239.39 133.92
  Q 233.05 146.00 235.27 159.70
  C 235.86 163.30 237.40 166.13 241.04 166.79
  C 255.65 169.41 262.39 132.59 253.31 127.19"
/>
<path stroke="#909090" vector-effect="non-scaling-stroke" d="
  M 164.79 156.09
  A 1.01 1.00 4.7 0 0 165.78 155.26
  L 167.90 142.99
  Q 168.47 139.69 166.19 142.13
  L 154.76 154.34
  Q 153.20 156.01 155.48 156.03
  L 164.79 156.09"
/>
<path stroke="#909090" vector-effect="non-scaling-stroke" d="
  M 328.19 142.11
  L 316.74 154.35
  Q 315.18 156.02 317.47 156.04
  L 326.79 156.08
  A 1.01 1.00 4.7 0 0 327.78 155.25
  L 329.91 142.97
  Q 330.48 139.67 328.19 142.11"
/>
</g>
<path fill="#212121" d="
  M 241.86 351.13
  C 224.09 343.24 224.40 319.35 241.91 311.46
  A 1.01 1.00 -12.5 0 0 242.50 310.55
  L 242.50 223.12
  A 1.00 0.99 89.7 0 0 241.50 222.12
  Q 175.01 222.35 108.47 222.24
  Q 96.63 222.22 91.85 220.66
  C 79.41 216.61 75.20 206.22 75.21 193.90
  Q 75.29 145.33 75.24 96.75
  C 75.23 86.44 81.68 77.16 91.26 73.70
  Q 95.27 72.25 104.92 72.17
  C 187.11 71.51 264.78 72.32 397.79 72.23
  C 415.03 72.22 424.77 82.18 424.76 99.35
  Q 424.71 146.65 424.79 193.94
  C 424.81 206.26 420.51 216.67 408.09 220.70
  Q 403.33 222.24 391.60 222.25
  Q 325.06 222.28 258.50 222.21
  A 1.00 1.00 0.0 0 0 257.50 223.21
  L 257.50 310.46
  A 1.00 0.99 13.9 0 0 258.04 311.34
  C 275.41 320.38 276.28 342.75 258.16 351.15
  A 1.01 1.01 0.0 0 0 257.58 352.05
  Q 257.44 364.70 257.51 377.30
  Q 257.53 381.14 256.38 382.96
  C 253.34 387.79 246.18 387.68 243.50 382.73
  Q 242.46 380.81 242.48 376.60
  Q 242.55 364.31 242.46 352.04
  A 1.01 1.01 0.0 0 0 241.86 351.13
  Z
  M 212.76 167.88
  C 215.05 175.77 221.45 184.74 229.99 186.76
  C 248.87 191.23 266.22 182.88 274.67 165.69
  C 284.08 146.53 286.58 107.34 255.51 105.35
  Q 230.57 103.75 218.12 126.42
  C 211.61 138.26 209.07 155.19 212.76 167.88
  Z
  M 189.15 151.08
  L 196.59 107.92
  A 1.00 1.00 0.0 0 0 195.60 106.75
  L 176.50 106.75
  A 1.02 1.00 20.3 0 0 175.74 107.09
  L 119.94 171.60
  Q 118.51 173.25 120.69 173.25
  L 158.34 173.25
  A 1.00 1.00 0.0 0 1 159.32 174.42
  L 157.46 185.34
  A 1.00 1.00 0.0 0 0 158.60 186.49
  Q 162.13 185.96 166.00 186.51
  Q 168.65 186.89 182.34 186.21
  A 1.01 1.01 0.0 0 0 183.28 185.38
  L 185.25 174.05
  A 1.01 1.00 -84.6 0 1 186.25 173.22
  L 196.57 173.33
  A 1.01 1.00 4.7 0 0 197.56 172.50
  L 200.90 153.42
  A 1.00 0.99 5.1 0 0 199.92 152.25
  L 190.14 152.25
  A 1.00 1.00 0.0 0 1 189.15 151.08
  Z
  M 351.30 152.25
  A 0.31 0.31 0.0 0 1 350.99 151.89
  L 358.71 107.11
  A 0.31 0.31 0.0 0 0 358.40 106.75
  L 338.16 106.75
  A 0.31 0.31 0.0 0 0 337.93 106.86
  L 280.95 172.74
  A 0.31 0.31 0.0 0 0 281.19 173.25
  L 321.11 173.25
  A 0.31 0.31 0.0 0 1 321.42 173.61
  L 319.29 186.20
  A 0.31 0.31 0.0 0 0 319.60 186.57
  L 344.84 186.33
  A 0.31 0.31 0.0 0 0 345.14 186.08
  L 347.35 173.47
  A 0.31 0.31 0.0 0 1 347.66 173.21
  L 359.16 173.33
  A 0.31 0.31 0.0 0 0 359.47 173.07
  L 363.02 152.61
  A 0.31 0.31 0.0 0 0 362.71 152.25
  L 351.30 152.25
  Z
  M 254.25 222.47
  A 0.27 0.27 0.0 0 0 253.98 222.20
  L 246.02 222.20
  A 0.27 0.27 0.0 0 0 245.75 222.47
  L 245.75 309.83
  A 0.27 0.27 0.0 0 0 246.02 310.10
  L 253.98 310.10
  A 0.27 0.27 0.0 0 0 254.25 309.83
  L 254.25 222.47
  Z
  M 246.27 381.78
  C 251.94 384.88 254.26 382.19 254.26 376.84
  Q 254.25 365.15 254.23 353.45
  A 1.00 0.99 -0.0 0 0 253.23 352.46
  L 246.75 352.46
  A 1.00 1.00 0.0 0 0 245.75 353.46
  L 245.75 380.90
  A 1.01 1.00 14.7 0 0 246.27 381.78
  Z"
/>
<path fill="#ffffff" d="
  M 229.99 186.76
  C 221.45 184.74 215.05 175.77 212.76 167.88
  C 209.07 155.19 211.61 138.26 218.12 126.42
  Q 230.57 103.75 255.51 105.35
  C 286.58 107.34 284.08 146.53 274.67 165.69
  C 266.22 182.88 248.87 191.23 229.99 186.76
  Z
  M 253.31 127.19
  C 247.51 123.74 241.89 129.16 239.39 133.92
  Q 233.05 146.00 235.27 159.70
  C 235.86 163.30 237.40 166.13 241.04 166.79
  C 255.65 169.41 262.39 132.59 253.31 127.19
  Z"
/>
<path fill="#ffffff" d="
  M 189.15 151.08
  A 1.00 1.00 0.0 0 0 190.14 152.25
  L 199.92 152.25
  A 1.00 0.99 5.1 0 1 200.90 153.42
  L 197.56 172.50
  A 1.01 1.00 4.7 0 1 196.57 173.33
  L 186.25 173.22
  A 1.01 1.00 -84.6 0 0 185.25 174.05
  L 183.28 185.38
  A 1.01 1.01 0.0 0 1 182.34 186.21
  Q 168.65 186.89 166.00 186.51
  Q 162.13 185.96 158.60 186.49
  A 1.00 1.00 0.0 0 1 157.46 185.34
  L 159.32 174.42
  A 1.00 1.00 0.0 0 0 158.34 173.25
  L 120.69 173.25
  Q 118.51 173.25 119.94 171.60
  L 175.74 107.09
  A 1.02 1.00 20.3 0 1 176.50 106.75
  L 195.60 106.75
  A 1.00 1.00 0.0 0 1 196.59 107.92
  L 189.15 151.08
  Z
  M 164.79 156.09
  A 1.01 1.00 4.7 0 0 165.78 155.26
  L 167.90 142.99
  Q 168.47 139.69 166.19 142.13
  L 154.76 154.34
  Q 153.20 156.01 155.48 156.03
  L 164.79 156.09
  Z"
/>
<path fill="#ffffff" d="
  M 351.30 152.25
  L 362.71 152.25
  A 0.31 0.31 0.0 0 1 363.02 152.61
  L 359.47 173.07
  A 0.31 0.31 0.0 0 1 359.16 173.33
  L 347.66 173.21
  A 0.31 0.31 0.0 0 0 347.35 173.47
  L 345.14 186.08
  A 0.31 0.31 0.0 0 1 344.84 186.33
  L 319.60 186.57
  A 0.31 0.31 0.0 0 1 319.29 186.20
  L 321.42 173.61
  A 0.31 0.31 0.0 0 0 321.11 173.25
  L 281.19 173.25
  A 0.31 0.31 0.0 0 1 280.95 172.74
  L 337.93 106.86
  A 0.31 0.31 0.0 0 1 338.16 106.75
  L 358.40 106.75
  A 0.31 0.31 0.0 0 1 358.71 107.11
  L 350.99 151.89
  A 0.31 0.31 0.0 0 0 351.30 152.25
  Z
  M 328.19 142.11
  L 316.74 154.35
  Q 315.18 156.02 317.47 156.04
  L 326.79 156.08
  A 1.01 1.00 4.7 0 0 327.78 155.25
  L 329.91 142.97
  Q 330.48 139.67 328.19 142.11
  Z"
/>
<path fill="#212121" d="
  M 253.31 127.19
  C 262.39 132.59 255.65 169.41 241.04 166.79
  C 237.40 166.13 235.86 163.30 235.27 159.70
  Q 233.05 146.00 239.39 133.92
  C 241.89 129.16 247.51 123.74 253.31 127.19
  Z"
/>
<path fill="#212121" d="
  M 164.79 156.09
  L 155.48 156.03
  Q 153.20 156.01 154.76 154.34
  L 166.19 142.13
  Q 168.47 139.69 167.90 142.99
  L 165.78 155.26
  A 1.01 1.00 4.7 0 1 164.79 156.09
  Z"
/>
<path fill="#212121" d="
  M 328.19 142.11
  Q 330.48 139.67 329.91 142.97
  L 327.78 155.25
  A 1.01 1.00 4.7 0 1 326.79 156.08
  L 317.47 156.04
  Q 315.18 156.02 316.74 154.35
  L 328.19 142.11
  Z"
/>
<rect fill="#ffffff" x="245.75" y="222.20" width="8.50" height="87.90" rx="0.27"/>
<rect fill="#212121" x="-44.70" y="-3.78" transform="translate(315.27,359.75) rotate(26.0)" width="89.40" height="7.56" rx="3.72"/>
<path fill="#ffffff" d="
  M 246.27 381.78
  A 1.01 1.00 14.7 0 1 245.75 380.90
  L 245.75 353.46
  A 1.00 1.00 0.0 0 1 246.75 352.46
  L 253.23 352.46
  A 1.00 0.99 0.0 0 1 254.23 353.45
  Q 254.25 365.15 254.26 376.84
  C 254.26 382.19 251.94 384.88 246.27 381.78
  Z"
/>
</svg>
