<svg xmlns="http://www.w3.org/2000/svg" width="245" height="205" viewBox="0 0 245 205" version="1.1"><path d="M 169.652 0.983 C 166.986 1.467, 164.511 2.171, 164.152 2.548 C 163.794 2.925, 164.850 2.984, 166.500 2.679 C 173.974 1.298, 181.049 1.026, 187.616 1.867 C 201.350 3.627, 206.215 7.963, 206.817 18.978 C 207.121 24.543, 206.825 26.013, 204.801 29 C 203.496 30.925, 200.870 33.251, 198.964 34.169 C 193.527 36.789, 183.489 38.178, 175.099 37.472 C 169.148 36.971, 166.741 37.186, 164 38.465 C 160.728 39.992, 160.696 40.051, 163.500 39.370 C 165.150 38.969, 171.900 38.579, 178.500 38.503 C 193.499 38.331, 198.236 37.037, 203.582 31.649 C 208.353 26.840, 209.733 21.441, 207.918 14.688 C 206.507 9.437, 200.822 3.862, 195.144 2.161 C 189.631 0.510, 175.790 -0.130, 169.652 0.983 M 158.241 4.995 C 154.581 7.226, 150.987 12.475, 151.048 15.500 C 151.071 16.689, 151.632 15.975, 152.429 13.741 C 154.150 8.918, 155.536 7.299, 159.929 4.976 C 161.893 3.938, 163.050 3.070, 162.500 3.048 C 161.950 3.026, 160.033 3.902, 158.241 4.995 M 178.858 11.750 C 178.733 16.835, 178.646 17.062, 178.108 13.717 C 177.154 7.779, 175.530 9.330, 175.204 16.491 C 175.042 20.071, 174.479 23, 173.954 23 C 173.429 23, 173 22.550, 173 22 C 173 21.450, 172.325 21, 171.500 21 C 169.141 21, 169.684 22.199, 174.341 27.272 C 177.669 30.897, 179.383 32, 181.686 32 C 186.729 32, 188 29.519, 188 19.671 C 188 10.998, 186.468 7.679, 185.728 14.750 C 185.411 17.781, 185.304 17.478, 185.168 13.167 C 184.953 6.327, 182.747 6.605, 181.907 13.578 L 181.314 18.500 181.157 12.250 C 180.960 4.402, 179.050 3.987, 178.858 11.750 M 60.342 24.723 C 56.725 33.380, 57.815 58.713, 61.967 62.470 C 63.601 63.948, 64.036 63.812, 67.854 60.622 C 75.467 54.261, 78.748 52.751, 86.095 52.225 C 90.867 51.884, 93 52.082, 93 52.866 C 93 53.490, 91.953 54, 90.674 54 C 85.728 54, 81.138 63.285, 84.337 66.820 C 85.176 67.747, 86.770 72.849, 87.878 78.158 C 90.122 88.903, 92.338 95, 93.999 95 C 95.751 95, 101.165 91.990, 105.400 88.660 L 109.301 85.594 108.629 95.047 C 108.260 100.246, 107.680 109.787, 107.342 116.250 C 106.737 127.777, 106.766 128, 108.863 128 L 111 128 111 163.577 L 111 199.154 114.048 202.202 C 116.749 204.903, 117.575 205.186, 121.288 204.688 C 128.979 203.657, 129 203.568, 129 172.389 C 129 154.796, 129.358 145, 130 145 C 130.642 145, 131 154.692, 131 172.077 L 131 199.154 133.923 202.077 C 137.692 205.846, 141.752 205.921, 146.055 202.301 L 149.263 199.601 148.531 164.301 L 147.799 129 151.018 129 L 154.237 129 153.560 120.250 C 153.188 115.438, 152.190 105.942, 151.343 99.148 C 150.262 90.478, 150.118 86.482, 150.859 85.741 C 152.693 83.907, 154.902 86.834, 161.206 99.449 C 164.518 106.077, 167.357 111.643, 167.514 111.817 C 167.672 111.992, 170.096 110.972, 172.901 109.550 C 175.705 108.129, 178 107.445, 178 108.029 C 178 108.614, 175.775 110.123, 173.055 111.383 L 168.110 113.674 170.998 116.837 C 174.187 120.328, 175.684 120.683, 178.510 118.616 C 181.808 116.205, 180.604 111.102, 171.958 90.830 C 161.529 66.377, 159.509 62.367, 156.742 60.622 C 155.480 59.826, 150.893 59.016, 146.250 58.769 L 138 58.331 138 61.165 C 138 64.634, 137.582 64.667, 133.822 61.504 C 130.711 58.886, 128.808 59.117, 126.045 62.445 C 124.111 64.776, 123 64.328, 123 61.217 L 123 58.435 115.750 58.760 C 111.763 58.940, 107.496 59.298, 106.268 59.558 C 104.067 60.023, 101.358 64.102, 100.002 68.994 C 99.372 71.265, 99.241 71.121, 98.602 67.464 C 98.104 64.616, 98.351 62.556, 99.442 60.464 C 100.292 58.834, 100.990 56.473, 100.994 55.219 C 101 52.899, 101.387 52.630, 106.250 51.564 C 108.902 50.983, 109 50.733, 109 44.540 C 109 40.501, 108.536 37.818, 107.750 37.309 C 107.063 36.864, 101.325 36.269, 95 35.986 C 81.468 35.381, 77.002 33.617, 69.362 25.860 C 66.729 23.187, 63.973 21, 63.237 21 C 62.500 21, 61.198 22.675, 60.342 24.723 M 119.830 23.027 C 115.413 25.360, 112.070 29.794, 111.341 34.286 C 110.879 37.131, 111.168 37.756, 113.422 38.783 C 116.774 40.310, 118.507 44.592, 117.060 47.769 C 115.451 51.299, 115.649 51.652, 120.568 54.033 C 128.805 58.021, 139.621 54.532, 143.344 46.688 C 150.624 31.347, 134.602 15.224, 119.830 23.027 M 151.079 24.583 C 151.127 25.748, 151.364 25.985, 151.683 25.188 C 151.972 24.466, 151.936 23.603, 151.604 23.271 C 151.272 22.939, 151.036 23.529, 151.079 24.583 M 152 27.725 C 152 28.163, 153.125 29.734, 154.500 31.217 C 155.875 32.699, 157 34.248, 157 34.659 C 157 35.069, 155.562 36.889, 153.804 38.702 C 150.757 41.846, 150.713 42, 152.863 42 C 154.219 42, 154.853 41.571, 154.453 40.923 C 154.087 40.331, 154.735 38.964, 155.894 37.884 C 158.669 35.299, 158.563 34.405, 155 30.347 C 153.350 28.468, 152 27.288, 152 27.725 M 157.813 40.683 C 158.534 40.972, 159.397 40.936, 159.729 40.604 C 160.061 40.272, 159.471 40.036, 158.417 40.079 C 157.252 40.127, 157.015 40.364, 157.813 40.683 M 124.017 66.480 C 122.760 67.995, 121.122 83.569, 121.044 94.750 L 121 101 130.143 101 L 139.287 101 138.589 84.250 C 138.015 70.471, 137.601 67.278, 136.255 66.250 C 131.944 62.958, 131.365 66.896, 134.083 81.006 L 136.361 92.825 133.247 96.371 L 130.134 99.917 126.977 96.321 C 124.600 93.613, 123.950 92.079, 124.348 90.112 C 126.724 78.374, 128.202 67.968, 127.684 66.620 C 126.911 64.604, 125.615 64.554, 124.017 66.480" stroke="none" fill="#06647b" fill-rule="evenodd"/><path d="M 0 102.500 L 0 205 58.423 205 L 116.846 205 113.923 202.077 L 111 199.154 111 163.577 L 111 128 108.863 128 C 106.766 128, 106.737 127.777, 107.342 116.250 C 107.680 109.787, 108.260 100.246, 108.629 95.047 L 109.301 85.594 105.400 88.660 C 101.165 91.990, 95.751 95, 93.999 95 C 92.338 95, 90.122 88.903, 87.878 78.158 C 86.770 72.849, 85.176 67.747, 84.337 66.820 C 81.138 63.285, 85.728 54, 90.674 54 C 91.953 54, 93 53.490, 93 52.866 C 93 52.082, 90.867 51.884, 86.095 52.225 C 78.748 52.751, 75.467 54.261, 67.854 60.622 C 64.036 63.812, 63.601 63.948, 61.967 62.470 C 56.234 57.282, 57.345 21, 63.237 21 C 63.973 21, 66.729 23.187, 69.362 25.860 C 77.002 33.617, 81.468 35.381, 95 35.986 C 101.325 36.269, 107.063 36.864, 107.750 37.309 C 108.536 37.818, 109 40.501, 109 44.540 C 109 50.733, 108.902 50.983, 106.250 51.564 C 101.387 52.630, 101 52.899, 100.994 55.219 C 100.990 56.473, 100.292 58.834, 99.442 60.464 C 98.351 62.556, 98.104 64.616, 98.602 67.464 C 99.241 71.121, 99.372 71.265, 100.002 68.994 C 101.358 64.102, 104.067 60.023, 106.268 59.558 C 107.496 59.298, 111.763 58.940, 115.750 58.760 L 123 58.435 123 61.217 C 123 64.328, 124.111 64.776, 126.045 62.445 C 128.808 59.117, 130.711 58.886, 133.822 61.504 C 137.582 64.667, 138 64.634, 138 61.165 L 138 58.331 146.250 58.769 C 150.893 59.016, 155.480 59.826, 156.742 60.622 C 159.509 62.367, 161.529 66.377, 171.958 90.830 C 180.604 111.102, 181.808 116.205, 178.510 118.616 C 175.684 120.683, 174.187 120.328, 170.998 116.837 L 168.110 113.674 173.055 111.383 C 175.775 110.123, 178 108.614, 178 108.029 C 178 107.445, 175.705 108.129, 172.901 109.550 C 170.096 110.972, 167.672 111.992, 167.514 111.817 C 167.357 111.643, 164.518 106.077, 161.206 99.449 C 154.902 86.834, 152.693 83.907, 150.859 85.741 C 150.118 86.482, 150.262 90.478, 151.343 99.148 C 152.190 105.942, 153.188 115.438, 153.560 120.250 L 154.237 129 151.018 129 L 147.799 129 148.531 164.301 L 149.263 199.601 146.044 202.310 L 142.825 205.018 194.162 204.759 L 245.500 204.500 245.755 102.250 L 246.009 0 215.755 0.118 C 197.456 0.189, 187.334 0.545, 190.141 1.019 C 203.106 3.209, 210.151 11.777, 208.371 23.188 C 207.486 28.859, 201.309 35.269, 194.983 37.082 C 192.517 37.788, 185.100 38.428, 178.500 38.503 C 171.900 38.579, 165.150 38.969, 163.500 39.370 C 160.696 40.051, 160.728 39.992, 164 38.465 C 166.741 37.186, 169.148 36.971, 175.099 37.472 C 183.489 38.178, 193.527 36.789, 198.964 34.169 C 200.870 33.251, 203.496 30.925, 204.801 29 C 206.825 26.013, 207.121 24.543, 206.817 18.978 C 206.215 7.963, 201.350 3.627, 187.616 1.867 C 181.049 1.026, 173.974 1.298, 166.500 2.679 C 164.850 2.984, 163.794 2.925, 164.152 2.548 C 164.511 2.171, 166.986 1.496, 169.652 1.049 C 172.352 0.596, 135.833 0.183, 87.250 0.118 L 0 0 0 102.500 M 0.481 103 C 0.481 159.375, 0.602 182.437, 0.750 154.250 C 0.897 126.062, 0.897 79.937, 0.750 51.750 C 0.602 23.562, 0.481 46.625, 0.481 103 M 158.241 4.995 C 154.581 7.226, 150.987 12.475, 151.048 15.500 C 151.071 16.689, 151.632 15.975, 152.429 13.741 C 154.150 8.918, 155.536 7.299, 159.929 4.976 C 161.893 3.938, 163.050 3.070, 162.500 3.048 C 161.950 3.026, 160.033 3.902, 158.241 4.995 M 178.858 11.750 C 178.733 16.835, 178.646 17.062, 178.108 13.717 C 177.154 7.779, 175.530 9.330, 175.204 16.491 C 175.042 20.071, 174.479 23, 173.954 23 C 173.429 23, 173 22.550, 173 22 C 173 21.450, 172.325 21, 171.500 21 C 169.141 21, 169.684 22.199, 174.341 27.272 C 177.669 30.897, 179.383 32, 181.686 32 C 186.729 32, 188 29.519, 188 19.671 C 188 10.998, 186.468 7.679, 185.728 14.750 C 185.411 17.781, 185.304 17.478, 185.168 13.167 C 184.953 6.327, 182.747 6.605, 181.907 13.578 L 181.314 18.500 181.157 12.250 C 180.960 4.402, 179.050 3.987, 178.858 11.750 M 119.830 23.027 C 115.413 25.360, 112.070 29.794, 111.341 34.286 C 110.879 37.131, 111.168 37.756, 113.422 38.783 C 116.774 40.310, 118.507 44.592, 117.060 47.769 C 115.451 51.299, 115.649 51.652, 120.568 54.033 C 128.805 58.021, 139.621 54.532, 143.344 46.688 C 150.624 31.347, 134.602 15.224, 119.830 23.027 M 151.079 24.583 C 151.127 25.748, 151.364 25.985, 151.683 25.188 C 151.972 24.466, 151.936 23.603, 151.604 23.271 C 151.272 22.939, 151.036 23.529, 151.079 24.583 M 152 27.725 C 152 28.163, 153.125 29.734, 154.500 31.217 C 155.875 32.699, 157 34.248, 157 34.659 C 157 35.069, 155.562 36.889, 153.804 38.702 C 150.757 41.846, 150.713 42, 152.863 42 C 154.219 42, 154.853 41.571, 154.453 40.923 C 154.087 40.331, 154.735 38.964, 155.894 37.884 C 158.669 35.299, 158.563 34.405, 155 30.347 C 153.350 28.468, 152 27.288, 152 27.725 M 157.813 40.683 C 158.534 40.972, 159.397 40.936, 159.729 40.604 C 160.061 40.272, 159.471 40.036, 158.417 40.079 C 157.252 40.127, 157.015 40.364, 157.813 40.683 M 124.017 66.480 C 122.760 67.995, 121.122 83.569, 121.044 94.750 L 121 101 130.143 101 L 139.287 101 138.589 84.250 C 138.015 70.471, 137.601 67.278, 136.255 66.250 C 131.944 62.958, 131.365 66.896, 134.083 81.006 L 136.361 92.825 133.247 96.371 L 130.134 99.917 126.977 96.321 C 124.600 93.613, 123.950 92.079, 124.348 90.112 C 126.724 78.374, 128.202 67.968, 127.684 66.620 C 126.911 64.604, 125.615 64.554, 124.017 66.480 M 129 172.066 C 129 189.304, 128.613 199.854, 127.935 201.122 C 127.349 202.217, 125.886 203.509, 124.685 203.993 C 123.111 204.627, 124.505 204.891, 129.673 204.937 L 136.846 205 133.923 202.077 L 131 199.154 131 172.077 C 131 154.692, 130.642 145, 130 145 C 129.358 145, 129 154.689, 129 172.066" stroke="none" fill="#fafafa" fill-rule="evenodd"/></svg>