<svg xmlns="http://www.w3.org/2000/svg" width="1024" height="1024" viewBox="0 0 1024 1024" version="1.1"><path d="M 706.030 203.464 C 705.362 204.269, 704.442 207.757, 703.987 211.214 C 703.531 214.671, 702.483 222.450, 701.658 228.500 C 697.724 257.344, 697.625 258.779, 699.386 261.467 C 701.346 264.458, 705.281 265.649, 708.442 264.208 C 711.002 263.042, 717.122 252.733, 720.007 244.727 C 721.043 241.852, 723.742 234.775, 726.004 229 C 728.267 223.225, 730.368 216.247, 730.674 213.493 L 731.230 208.486 727.365 206.786 C 723.396 205.039, 711.775 202.041, 708.872 202.015 C 707.977 202.007, 706.698 202.659, 706.030 203.464 M 523.006 228.250 C 520.444 234.308, 517.876 249.157, 515.008 274.500 C 514.385 280, 513.474 287.425, 512.983 291 C 511.209 303.915, 509.710 327.639, 510.426 331.456 C 510.886 333.908, 512.432 336.632, 514.588 338.788 L 518.018 342.218 532.759 341.706 C 540.866 341.425, 553.800 340.671, 561.500 340.029 C 578.007 338.655, 578.888 338.149, 580.144 329.313 C 581.799 317.675, 579.259 315.229, 566.699 316.368 C 554.790 317.447, 541.790 318.841, 536.750 319.577 C 532.064 320.262, 532 320.235, 532 317.516 C 532 316, 532.875 308.626, 533.943 301.130 C 535.012 293.633, 536.621 282.100, 537.518 275.500 C 539.221 262.974, 542.413 242.795, 543.560 237.307 C 544.115 234.652, 543.775 233.696, 541.543 231.627 C 538.530 228.835, 531.103 226, 526.800 226 C 524.800 226, 523.675 226.667, 523.006 228.250 M 225 247.156 C 216.537 249.514, 190.068 260.723, 174 268.754 C 156.841 277.329, 156.472 277.581, 155.063 281.655 C 153.396 286.480, 154.681 292.693, 157.984 295.770 C 159.120 296.829, 160.514 300.563, 161.438 305.022 C 162.290 309.135, 163.470 314.075, 164.061 316 C 168.926 331.854, 168.980 332.210, 166.920 334.829 C 163.056 339.741, 165.639 348.229, 171.729 350.633 L 175.500 352.122 181.874 371.516 C 185.380 382.183, 188.934 391.889, 189.773 393.086 C 191.157 395.063, 191.889 395.206, 197.786 394.656 C 204.337 394.044, 208.624 392.142, 209.685 389.378 C 210.184 388.077, 208.679 382.360, 200.240 353.500 C 197.149 342.931, 196.606 343.954, 208.165 338.549 C 232.182 327.316, 233.129 326.790, 234.144 324.120 C 235.413 320.784, 234.469 315.859, 231.401 309.805 C 229.279 305.618, 228.567 305, 225.858 305 C 222.841 305, 206.114 310.739, 197 314.901 C 194.525 316.031, 192.004 316.966, 191.397 316.978 C 190.219 317.001, 185.001 301.751, 184.688 297.369 C 184.481 294.485, 184.538 294.452, 222.268 275.330 C 240.597 266.040, 242.806 264.007, 241.443 257.677 C 240.558 253.568, 238.119 248.826, 236.096 247.282 C 234.214 245.845, 229.880 245.796, 225 247.156 M 444 251.921 C 440.425 252.878, 436.521 254.275, 435.324 255.025 C 433.590 256.112, 432.616 256.146, 430.527 255.194 C 423.950 252.198, 416.804 256.198, 415.404 263.659 C 414.582 268.040, 415.636 293.798, 417.537 315.803 C 420.165 346.224, 419.882 345.540, 429.402 344.486 C 432.756 344.115, 436.559 343.138, 437.853 342.315 C 440.143 340.859, 440.196 340.505, 439.853 328.910 C 439.630 321.401, 439.869 317.001, 440.500 317.002 C 441.050 317.003, 444.432 318.916, 448.016 321.252 C 455.725 326.277, 464.571 331.655, 471.500 335.528 C 483.399 342.179, 483.146 342.171, 489.750 336.123 C 494.146 332.098, 495.079 328.913, 492.718 325.993 C 492.048 325.165, 487.225 321.845, 482 318.616 C 466.523 309.051, 456 301.930, 456 301.021 C 456 300.553, 458.197 298.557, 460.883 296.586 C 477.629 284.293, 482.871 267.100, 473.200 256.182 C 470.291 252.897, 461.940 249.983, 455.739 250.090 C 452.858 250.140, 447.575 250.964, 444 251.921 M 340.982 263.250 C 337.103 265.884, 335.698 269.571, 327.557 298.500 C 321.310 320.700, 319.538 327.710, 316.541 342.086 C 314.350 352.599, 314.486 355.908, 317.180 357.648 C 319.375 359.065, 328.069 360.795, 330.198 360.238 C 332.928 359.524, 335.358 353.414, 338.518 339.322 C 339.976 332.820, 341.243 327.438, 341.335 327.363 C 341.426 327.287, 344.875 326.230, 349 325.014 C 353.125 323.798, 359.425 321.938, 363 320.881 L 369.500 318.959 371.670 321.645 C 372.863 323.123, 374.438 325.490, 375.170 326.905 C 377.483 331.381, 385.644 343.391, 388.288 346.210 C 391.939 350.101, 395.130 350.600, 400.320 348.087 C 404.447 346.090, 407 342.773, 407 339.410 C 407 338.587, 405.313 335.248, 403.250 331.990 C 401.188 328.732, 397.250 322.409, 394.500 317.940 C 386.474 304.895, 378.521 292.361, 372.735 283.638 C 368.426 277.142, 358.711 264.918, 356.435 263.127 C 352.680 260.174, 345.428 260.231, 340.982 263.250 M 443.250 274.754 C 437.136 277.260, 437 277.398, 437 281.099 C 437 283.179, 437.441 285.155, 437.980 285.488 C 439.199 286.241, 446.375 280.838, 450.866 275.786 C 454.135 272.109, 454.164 272.003, 451.866 272.097 C 450.565 272.150, 446.688 273.346, 443.250 274.754 M 267.500 285.222 C 263.098 286.783, 253.397 293.790, 250.662 297.383 C 244.291 305.751, 241.038 316.675, 241.015 329.782 C 240.991 342.957, 246.062 355.473, 254.270 362.499 C 268.353 374.553, 292.322 371.678, 307.940 356.060 C 312.572 351.428, 312.989 348.858, 310.043 343.083 C 306.815 336.756, 303.957 336.507, 294.040 341.687 C 285.403 346.198, 277.492 347.138, 272.003 344.305 C 266.363 341.394, 267.035 339.870, 275.753 335.799 C 284.794 331.576, 294.198 324.607, 297.913 319.375 C 301.294 314.614, 301.407 305.633, 298.165 299.306 C 295.564 294.229, 289.821 288.472, 284.790 285.898 C 280.674 283.793, 272.438 283.471, 267.500 285.222 M 718.291 286.750 C 717.230 287.712, 715.346 291.200, 714.105 294.500 C 712.865 297.800, 710.983 302.637, 709.925 305.250 C 708.866 307.863, 707.052 312.363, 705.894 315.250 C 704.735 318.137, 702.921 322.454, 701.862 324.842 C 700.803 327.230, 699.670 331.132, 699.343 333.513 C 698.824 337.297, 699.088 338.179, 701.441 340.532 C 704.997 344.088, 709.181 343.325, 714.087 338.227 C 722.161 329.836, 739 301.704, 739 296.606 C 739 295.437, 738.030 293.875, 736.844 293.135 C 734.170 291.465, 721.334 285, 720.692 285 C 720.433 285, 719.353 285.788, 718.291 286.750 M 350.167 294.250 C 349.624 296.038, 348.918 298.689, 348.598 300.143 C 348.038 302.684, 348.140 302.756, 351.258 302.008 C 358.105 300.366, 358.138 300.311, 355.185 295.421 C 353.716 292.989, 352.209 291, 351.835 291 C 351.461 291, 350.711 292.462, 350.167 294.250 M 784.871 307.641 C 762.967 324.286, 752.786 333.009, 739.963 346.113 C 729.450 356.857, 727.579 362.713, 733.433 366.548 C 736.693 368.684, 741.385 367.377, 755.500 360.401 C 773.601 351.454, 794.427 338.131, 805.821 328.210 C 812.732 322.192, 813.161 320.386, 808.959 315 C 807.886 313.625, 806.047 310.714, 804.872 308.531 C 801.811 302.844, 798.811 299, 797.433 299 C 796.778 299, 791.125 302.888, 784.871 307.641 M 270.494 310.006 C 267.759 313.029, 269.362 313.461, 272.635 310.583 C 274.679 308.785, 275.043 308.054, 273.905 308.032 C 273.028 308.014, 271.493 308.903, 270.494 310.006 M 644 351.672 C 642.075 352.501, 637.290 354.510, 633.367 356.135 C 629.444 357.759, 623.733 360.596, 620.675 362.437 C 615.148 365.765, 615.104 365.773, 613.310 363.790 C 611.853 362.180, 610.638 361.892, 607.003 362.298 C 602.633 362.786, 601.776 363.538, 578 387.758 C 548.942 417.357, 522.044 445.402, 518.996 449.278 C 517.794 450.806, 514.941 453.007, 512.655 454.170 C 505.714 457.702, 485.064 473.819, 475.163 483.433 L 465.825 492.500 466.201 499 C 466.579 505.546, 470.229 515.385, 473.702 519.223 C 475.730 521.465, 484.482 521.589, 497.944 519.568 C 508.504 517.982, 508.124 517.834, 511.862 525 C 512.866 526.925, 514.545 530.006, 515.594 531.847 C 517.470 535.140, 517.470 535.211, 515.586 536.347 C 514.533 536.981, 512.291 538.694, 510.603 540.152 C 507.683 542.676, 507.589 542.991, 508.649 546.652 C 512.061 558.431, 516.413 568.584, 525.452 585.856 C 530.849 596.170, 529.304 596.623, 562 575.141 C 574.259 567.086, 573.995 567.270, 578.388 563.708 C 581.086 561.520, 581.201 561.140, 580.140 557.933 C 579.109 554.817, 563.137 525.146, 561.108 522.579 C 560.640 521.985, 560.372 518.134, 560.514 514.020 L 560.772 506.539 583.136 501.299 C 629.592 490.415, 660.652 482.612, 665 480.733 C 674.307 476.712, 677.046 471.447, 673.434 464.520 C 672.579 462.881, 672.304 461.399, 672.822 461.226 C 673.340 461.053, 676.404 459.304, 679.632 457.338 C 682.859 455.372, 687.075 452.863, 689 451.762 C 697.106 447.128, 699.954 444.523, 700.611 441.143 C 702.442 431.713, 697.080 413.125, 686.359 391.736 C 679.592 378.236, 671.914 367.737, 660.773 356.750 C 653.263 349.344, 650.994 348.657, 644 351.672 M 648.639 361.275 C 647.055 362.433, 647.313 362.863, 651.448 365.961 C 653.951 367.837, 656.005 369.626, 656.011 369.936 C 656.017 370.246, 657.929 372.615, 660.261 375.200 C 667.637 383.378, 673.809 393.136, 682.917 411.026 C 685.850 416.787, 688.598 421.882, 689.023 422.348 C 690.549 424.021, 685.962 408.997, 682.757 401.822 C 678.471 392.225, 673.894 384, 672.841 384 C 672.378 384, 672 383.557, 672 383.016 C 672 381.522, 659.394 365.510, 655.910 362.577 C 652.461 359.675, 651.148 359.440, 648.639 361.275 M 604.545 373.275 L 600.756 376.550 605.871 386.525 C 608.684 392.011, 613.522 400.775, 616.622 406 C 623.946 418.343, 625.597 421.184, 629.994 429 C 632.004 432.575, 636.428 440.123, 639.825 445.774 C 643.221 451.424, 646 456.253, 646 456.504 C 646 456.756, 647.582 459.435, 649.516 462.458 C 651.450 465.481, 653.468 469.101, 654.001 470.503 C 654.534 471.904, 655.669 473.319, 656.523 473.647 C 658.048 474.232, 667 471.360, 667 470.286 C 667 469.984, 664.803 465.859, 662.119 461.119 C 659.434 456.378, 655.770 449.800, 653.977 446.500 C 652.183 443.200, 647.918 435.775, 644.498 430 C 630.496 406.351, 627.323 400.909, 620.012 388 C 610.994 372.079, 609.713 370, 608.926 370 C 608.600 370, 606.628 371.474, 604.545 373.275 M 644.471 374.346 C 644.097 376.837, 643.998 379.466, 644.249 380.187 C 644.501 380.909, 645.044 379.109, 645.456 376.186 C 645.868 373.263, 645.968 370.635, 645.678 370.344 C 645.387 370.054, 644.844 371.855, 644.471 374.346 M 631.618 371.809 C 630.535 373.561, 629.740 388, 630.726 388 C 631.277 388, 631.991 386.087, 632.311 383.750 C 632.632 381.413, 633.201 377.587, 633.575 375.250 C 634.019 372.477, 633.884 371, 633.187 371 C 632.599 371, 631.893 371.364, 631.618 371.809 M 649.627 374 C 648.510 376.769, 646 391.463, 646.040 395 L 646.080 398.500 647.428 396 C 648.948 393.181, 651.523 375.988, 650.741 373.875 C 650.327 372.754, 650.121 372.777, 649.627 374 M 653.158 383.866 C 652 387.733, 651.544 394.790, 652.515 393.818 C 653.081 393.252, 656 382.475, 656 380.951 C 656 378.541, 654.201 380.387, 653.158 383.866 M 584.053 395.750 C 536.769 444.186, 516.622 464.002, 514.640 464.021 C 513.463 464.032, 510.316 465.952, 507.647 468.287 L 502.794 472.533 505.356 480.165 C 508.858 490.598, 517.712 507.001, 519.839 506.997 C 520.753 506.995, 527.043 505.632, 533.817 503.968 C 540.591 502.304, 550.266 500.076, 555.317 499.018 C 566.220 496.733, 566.219 496.733, 613.734 484.829 C 634.213 479.698, 650.973 475.050, 650.977 474.500 C 650.981 473.950, 648.910 469.900, 646.374 465.500 C 643.838 461.100, 640.632 455.475, 639.248 453 C 637.865 450.525, 635.273 446.025, 633.487 443 C 630.414 437.792, 622.140 423.343, 614.018 409 C 602.581 388.803, 598.940 383, 597.702 383 C 597.041 382.999, 590.899 388.737, 584.053 395.750 M 642.500 389 C 642.112 391.820, 642.020 394.353, 642.295 394.628 C 642.570 394.903, 643.112 392.820, 643.500 390 C 643.888 387.180, 643.980 384.647, 643.705 384.372 C 643.430 384.097, 642.888 386.180, 642.500 389 M 658.057 386.349 C 656.668 390.004, 656.641 394.759, 658.017 393.383 C 659.637 391.763, 660.862 386.395, 659.949 384.918 C 659.330 383.916, 658.842 384.285, 658.057 386.349 M 662.738 390.596 C 661.348 391.985, 662.001 395.044, 664.489 398.804 C 667.349 403.126, 672 414.511, 672 417.190 C 672 419.490, 673.605 419.529, 674.875 417.258 C 676.851 413.727, 677.289 417.243, 676.056 426.744 C 673.852 443.737, 673.699 446, 674.751 446 C 675.799 446, 677.685 435.370, 678.701 423.740 C 679.154 418.560, 678.946 416.573, 677.811 415.240 C 676.996 414.283, 675.715 411.925, 674.964 410 C 674.213 408.075, 672.339 404.343, 670.799 401.706 C 669.260 399.069, 667.998 396.594, 667.995 396.206 C 667.985 394.738, 663.443 389.891, 662.738 390.596 M 768.500 399.678 C 762.605 400.265, 744.783 404.054, 742.702 405.163 C 738.640 407.328, 737.808 415.523, 741.250 419.466 C 744.223 422.872, 752.412 423.770, 785.363 424.301 L 810.226 424.702 811.649 421.299 C 813.465 416.951, 814.461 403.003, 813.097 401 C 812.252 399.758, 808.670 399.481, 792.288 399.390 C 781.405 399.330, 770.700 399.459, 768.500 399.678 M 651.736 401.377 C 650.066 402.668, 650.105 403.028, 652.476 408.120 C 653.854 411.079, 654.985 413.955, 654.990 414.510 C 655 415.493, 659.669 421, 660.493 421 C 662.299 421, 665.998 418.368, 665.988 417.089 C 665.981 416.215, 664.294 412.125, 662.238 408 C 659.207 401.919, 658.027 400.454, 656 400.256 C 654.625 400.123, 652.706 400.627, 651.736 401.377 M 646.100 414.191 C 646.045 416.221, 646.450 418.160, 647 418.500 C 648.157 419.215, 648.157 416.612, 647 413 C 646.281 410.754, 646.189 410.876, 646.100 414.191 M 671.672 425.250 C 671.372 426.488, 670.626 431.325, 670.015 436 C 669.404 440.675, 668.670 445.288, 668.384 446.250 C 668.099 447.212, 668.305 448, 668.842 448 C 669.798 448, 671.278 440.254, 672.522 428.750 C 673.148 422.966, 672.686 421.066, 671.672 425.250 M 680.416 432.963 C 679.400 441.545, 680.037 442.356, 681.864 434.807 C 683.198 429.296, 683.336 425, 682.180 425 C 681.729 425, 680.935 428.584, 680.416 432.963 M 661.533 431.183 C 661.167 433.557, 660.623 436.962, 660.323 438.750 C 660.007 440.631, 660.203 442, 660.787 442 C 661.343 442, 662.116 438.823, 662.506 434.941 C 663.291 427.127, 662.581 424.385, 661.533 431.183 M 683.842 434.258 C 683.357 438.440, 683.903 441.178, 685.076 440.453 C 686.260 439.721, 686.287 432.296, 685.108 431.567 C 684.618 431.264, 684.048 432.475, 683.842 434.258 M 666.150 434.307 C 666.067 435.851, 665.503 439.086, 664.897 441.497 C 664.290 443.907, 664 446.469, 664.252 447.190 C 664.952 449.184, 667.195 437.422, 666.718 434.265 L 666.300 431.500 666.150 434.307 M 496.119 477.190 C 494.403 478.944, 493 480.647, 493 480.974 C 493 484.011, 502.146 504.215, 505.365 508.290 C 506.615 509.872, 507.233 509.937, 510.714 508.851 L 514.650 507.622 509.742 498.725 C 504.546 489.308, 501 480.229, 501 476.343 C 501 473.190, 499.832 473.392, 496.119 477.190 M 481.801 489.249 L 475.106 495.500 477.303 500 C 479.063 503.604, 479.948 504.438, 481.750 504.187 C 482.988 504.015, 484 504.378, 484 504.994 C 484 506.713, 490.218 512, 492.240 512 C 493.861 512, 493.783 511.506, 491.438 506.878 C 489.845 503.734, 489.201 501.399, 489.770 500.830 C 490.339 500.261, 491.709 502.237, 493.319 505.950 C 495.530 511.048, 496.291 511.943, 498.168 511.657 C 501.460 511.154, 501.442 509.767, 498.059 503.267 C 496.377 500.034, 493.955 494.291, 492.677 490.504 C 491.400 486.717, 489.936 483.479, 489.425 483.308 C 488.914 483.138, 485.483 485.811, 481.801 489.249 M 544 513.809 C 544 515.354, 544.643 517.491, 545.429 518.559 C 546.714 520.306, 546.922 520.334, 547.501 518.840 C 548.081 517.344, 545.632 511, 544.474 511 C 544.213 511, 544 512.264, 544 513.809 M 530.686 513.375 C 530.396 514.131, 528.797 514.950, 527.132 515.194 C 525.468 515.438, 524.333 515.270, 524.612 514.819 C 524.890 514.369, 523.966 514, 522.559 514 C 520.520 514, 520 514.491, 520 516.417 C 520 517.746, 520.337 518.983, 520.750 519.167 C 521.474 519.488, 533 541.377, 533 542.430 C 533 543.696, 526.800 545.988, 524.759 545.477 C 523.516 545.165, 521.660 545.526, 520.633 546.278 C 518.868 547.569, 518.856 547.821, 520.408 550.822 C 522.055 554.007, 523.702 555.273, 522.658 552.551 C 522.322 551.677, 522.583 551.286, 523.314 551.567 C 524.653 552.081, 537 572.333, 537 574.015 C 537 576.922, 533.059 572.331, 529.121 564.835 C 520.771 548.942, 521.089 552.747, 529.617 570.780 L 534.952 582.060 538.726 579.674 C 544.076 576.291, 555.334 569.117, 563.293 564.018 C 568.248 560.843, 569.922 559.238, 569.481 558.083 C 569.149 557.212, 565.258 550.100, 560.837 542.277 L 552.797 528.054 549.898 529.553 C 548.304 530.377, 547 531.493, 547 532.034 C 547 532.574, 549.250 536.973, 552 541.810 C 557.218 550.986, 557.620 552, 556.045 552 C 554.899 552, 549.616 543.485, 543.948 532.502 C 537.201 519.428, 532.880 512, 532.021 512 C 531.577 512, 530.977 512.619, 530.686 513.375 M 188.500 588.667 C 175.430 589.749, 161.584 592.684, 130.500 600.965 C 120.817 603.544, 119.783 604.874, 119.634 614.931 C 119.532 621.857, 119.800 623.158, 121.758 625.243 C 123.709 627.320, 124.003 628.723, 124.026 636.064 C 124.040 640.704, 124.487 648.975, 125.018 654.443 C 125.922 663.732, 125.854 664.527, 123.993 666.508 C 122.525 668.070, 122 670.012, 122 673.880 C 122 679.427, 123.117 682.426, 126.125 684.959 C 127.667 686.257, 128.195 689.495, 129.476 705.500 C 131.724 733.606, 132.499 735.511, 141.669 735.480 C 150.840 735.449, 154.941 734.286, 156.036 731.405 C 156.636 729.828, 156.589 720.485, 155.909 705.874 C 155.318 693.201, 154.998 682.669, 155.197 682.470 C 155.887 681.780, 168.542 680.124, 175.500 679.813 L 182.500 679.500 183.157 690.094 C 183.726 699.270, 184.240 701.533, 187 706.999 C 191.039 715.001, 198.409 722.270, 204.632 724.390 C 207.339 725.313, 212.589 726, 216.928 725.999 C 226.567 725.998, 234.574 722.456, 242.911 714.504 L 248.704 708.978 252.102 712.031 C 257.042 716.469, 260.554 718.098, 266.500 718.712 C 273.062 719.389, 281.412 716.934, 288.294 712.302 C 290.993 710.486, 293.503 709, 293.873 709 C 294.243 709, 295.365 710.521, 296.366 712.381 C 297.367 714.241, 299.248 716.330, 300.544 717.024 C 303.351 718.526, 310.597 717.760, 315.474 715.445 C 318.676 713.926, 318.867 713.958, 321.346 716.437 C 323.571 718.662, 324.767 719, 330.407 719 C 342.625 719, 344 716.963, 344 698.862 C 344 689.539, 344.415 685.929, 345.952 681.883 C 348.574 674.983, 352.546 669.444, 356.722 666.863 C 359.825 664.945, 360.546 664.860, 364.017 666.006 C 366.213 666.730, 369.536 667.010, 371.748 666.656 L 375.628 666.036 375.825 670.768 C 376.125 677.971, 379.469 708.441, 380.521 713.566 C 380.755 714.702, 381.893 716.724, 383.051 718.059 C 384.966 720.267, 385.884 720.480, 393.227 720.419 C 400.460 720.358, 401.496 720.106, 403.209 717.990 C 404.932 715.862, 405.063 714.482, 404.532 704.064 L 403.943 692.500 406.221 697.912 C 409.050 704.629, 416.857 712.800, 423.500 715.994 C 427.552 717.943, 430.111 718.403, 437 718.424 C 444.359 718.446, 446.239 718.074, 451 715.653 C 454.025 714.115, 458.636 711.064, 461.246 708.872 L 465.992 704.888 467.067 707.248 C 469.173 711.869, 477.800 716.063, 486.562 716.726 C 495.625 717.412, 502.979 715.250, 511.870 709.289 C 515.387 706.930, 518.430 705, 518.632 705 C 518.835 705, 519.007 706.013, 519.015 707.250 C 519.036 710.308, 519.904 711.435, 524.003 713.728 C 530.492 717.359, 536.838 718.408, 544.375 717.095 C 563.736 713.724, 574 704.555, 574 690.633 C 574 678.055, 568.179 672.237, 546.250 662.896 C 544.462 662.135, 543 661.158, 543 660.725 C 543 658.701, 546.610 658.974, 551.500 661.369 C 557.583 664.347, 558 664.413, 561.288 662.915 C 567.001 660.312, 568.792 650.955, 564.731 644.929 C 563.483 643.077, 560.256 640.198, 557.560 638.531 C 553.088 635.767, 551.902 635.502, 544.078 635.519 C 536.472 635.537, 534.962 635.859, 530.753 638.363 C 528.142 639.916, 524.229 643.205, 522.057 645.672 C 513.061 655.893, 514.549 672.246, 525.212 680.335 C 527.974 682.429, 536.114 686.055, 543.250 688.370 C 544.212 688.682, 545 689.466, 545 690.113 C 545 690.979, 543.221 691.073, 538.250 690.470 C 534.538 690.020, 529.362 689.698, 526.750 689.756 C 522.126 689.858, 522 689.782, 522 686.891 C 522 678.743, 513.397 669.969, 500.250 664.708 C 495.481 662.800, 491.417 660.751, 491.219 660.156 C 490.424 657.772, 496.242 657.674, 500.500 660 C 505.388 662.670, 508.305 662.297, 512.923 658.411 C 515.512 656.233, 516 655.115, 516 651.361 C 516 635.002, 494.592 628.378, 477.223 639.363 C 472.239 642.516, 467.425 647.559, 465.911 651.216 L 464.673 654.204 461.766 648.352 C 456.454 637.657, 451.086 634, 440.700 634 C 424.308 634, 408.206 650.349, 404.641 670.613 C 403.877 674.951, 402.997 677.825, 402.684 677 C 401.474 673.810, 400.048 631.709, 400.634 616.500 L 401.251 600.500 398.764 598.205 C 397.074 596.646, 394.133 595.577, 389.592 594.870 C 377.548 592.995, 376.486 595.047, 375.414 622.250 C 375.029 632.013, 374.579 640, 374.414 640 C 374.249 640, 372.499 639.047, 370.525 637.882 C 367.647 636.184, 365.802 635.855, 361.218 636.222 C 355.298 636.697, 345.942 640.542, 342.179 644.048 C 340.115 645.971, 340.092 645.965, 338.361 643.034 C 337.403 641.412, 335.361 639.564, 333.823 638.927 C 330.232 637.439, 322.814 638.519, 319.793 640.969 C 317.531 642.804, 317.498 643.136, 317.372 665.664 C 317.216 693.413, 317.189 693.710, 315.363 688 C 314.572 685.525, 313.542 676.841, 313.074 668.702 C 312.116 652.036, 311.429 650.412, 304.891 649.367 C 302.522 648.988, 300.173 647.700, 298.572 645.904 C 295.435 642.384, 292.720 641.654, 284.724 642.181 C 271.490 643.053, 259.354 652.123, 252.722 666.099 C 248.879 674.197, 246 683.935, 246 688.832 C 246 691.716, 245.795 691.872, 242.067 691.820 C 239.365 691.783, 235.583 693.056, 229.993 695.883 C 221.184 700.338, 216.816 700.960, 213.018 698.300 C 210.593 696.602, 210.595 696.600, 217.249 695.372 C 227.073 693.559, 235.805 689.960, 239.985 686 C 246.887 679.462, 247.500 665.267, 241.439 652.330 C 233.369 635.104, 211.094 634.567, 196.621 651.250 C 192.347 656.175, 191 656.981, 191 654.611 C 191 653.847, 190.165 652.190, 189.144 650.930 L 187.289 648.638 170.394 649.719 C 161.102 650.314, 153.276 650.585, 153.003 650.320 C 151.975 649.326, 151.510 627.818, 152.500 627.051 C 153.050 626.626, 155.075 626.002, 157 625.665 C 158.925 625.328, 164.325 624.130, 169 623.002 C 173.675 621.874, 182.900 619.833, 189.500 618.467 C 199.966 616.301, 201.851 615.600, 204.250 612.976 C 206.606 610.399, 207 609.115, 207 604.004 C 207 600.724, 206.301 596.292, 205.446 594.156 C 203.145 588.405, 200.809 587.649, 188.500 588.667 M 659 588.683 C 656.270 589.715, 652.851 594.393, 648.538 603 C 643 614.049, 630.969 641.301, 627.125 651.500 C 620.439 669.240, 616.999 678.978, 616.985 680.206 C 616.976 680.918, 616.589 682.100, 616.123 682.834 C 615.092 684.462, 611.651 675.943, 595.994 633 C 590.975 619.233, 585 601.018, 585 599.485 C 585 597.031, 580.855 593, 578.333 593 C 574.017 593, 561.952 597.135, 559.928 599.308 C 558.867 600.446, 558 602.397, 558 603.643 C 558 606.393, 562.014 618.736, 569.010 637.500 C 571.881 645.200, 575.036 653.975, 576.022 657 C 579.665 668.178, 586.151 686.591, 587.469 689.500 C 588.218 691.150, 590.968 697.858, 593.581 704.406 C 599.371 718.912, 604.322 725, 610.329 725 C 612.348 725, 614 725.402, 614 725.893 C 614 727.134, 611.046 728.147, 609.755 727.349 C 608.081 726.314, 604.356 725.951, 592 725.617 C 585.675 725.447, 579.600 725.020, 578.500 724.670 C 577.400 724.320, 574.124 724.411, 571.220 724.872 C 568.316 725.333, 565.754 725.411, 565.527 725.044 C 565.301 724.677, 563.627 724.547, 561.808 724.755 C 559.988 724.963, 557.600 725.085, 556.500 725.027 C 555.400 724.968, 547.750 724.826, 539.500 724.710 C 531.250 724.595, 523.947 724.142, 523.271 723.704 C 522.595 723.266, 521.220 723.347, 520.217 723.884 C 519.213 724.421, 517.857 724.530, 517.202 724.125 C 516.548 723.721, 512.747 723.532, 508.756 723.706 C 500.045 724.086, 488.521 724.017, 481 723.542 C 477.565 723.324, 474.706 723.696, 473.385 724.532 C 471.952 725.438, 470.942 725.542, 470.253 724.853 C 469.694 724.294, 466.371 723.919, 462.869 724.019 C 459.366 724.118, 454.844 724.146, 452.821 724.081 C 450.797 724.016, 448.858 724.421, 448.512 724.981 C 447.780 726.164, 443.683 726.350, 442.583 725.250 C 441.429 724.095, 432.837 724.098, 429.698 725.254 C 427.657 726.006, 425.816 725.929, 422.918 724.973 C 420.297 724.108, 418.603 723.997, 417.952 724.648 C 417.372 725.228, 414.800 725.359, 411.738 724.966 C 408.864 724.598, 405.118 724.681, 403.415 725.151 C 401.711 725.622, 396.083 726.026, 390.909 726.051 C 360.347 726.196, 331.897 727.327, 330.047 728.471 C 329.554 728.776, 327.914 728.462, 326.404 727.774 C 324.226 726.782, 323.574 726.779, 323.246 727.762 C 322.727 729.318, 319.297 729.391, 318.786 727.857 C 318.500 726.999, 317.871 726.999, 316.268 727.857 C 313.455 729.362, 310.296 729.311, 309.646 727.750 C 309.264 726.833, 308.756 726.953, 307.741 728.198 C 306.418 729.820, 301.087 730.183, 284 729.815 C 282.625 729.785, 278.125 730.064, 274 730.434 C 269.875 730.803, 263.125 731.228, 259 731.377 C 254.875 731.526, 250.682 732.012, 249.683 732.457 C 248.593 732.942, 247.412 732.812, 246.733 732.133 C 245.362 730.762, 242.683 730.690, 238.571 731.913 C 231.238 734.095, 226.464 734.836, 225.550 733.936 C 224.184 732.591, 221.240 732.783, 220.746 734.250 C 220.418 735.225, 219.959 735.198, 218.663 734.128 C 217.494 733.163, 216.629 733.063, 215.750 733.791 C 215.063 734.360, 210.900 735.081, 206.500 735.392 C 202.100 735.703, 196.700 736.176, 194.500 736.443 C 192.300 736.711, 186.900 737.217, 182.500 737.569 C 178.100 737.921, 173.703 738.632, 172.729 739.151 C 171.755 739.669, 170.510 739.815, 169.962 739.476 C 168.171 738.369, 158 740.131, 158 741.548 C 158 742.974, 161.456 744.454, 162.819 743.612 C 163.279 743.328, 169.398 742.842, 176.417 742.532 C 183.435 742.222, 191.275 741.498, 193.839 740.922 C 196.402 740.346, 199.997 740.155, 201.826 740.497 C 203.655 740.839, 205.712 740.654, 206.397 740.086 C 207.081 739.517, 208.960 739.061, 210.571 739.071 C 222.252 739.144, 237.970 737.676, 240.470 736.277 C 241.669 735.605, 243.488 735.572, 245.693 736.181 C 247.554 736.695, 252.547 736.832, 256.788 736.486 C 264.054 735.894, 270.751 735.428, 286 734.454 C 289.575 734.226, 293.850 734.069, 295.500 734.105 C 297.150 734.140, 300.075 734.143, 302 734.110 C 303.925 734.078, 309.290 734.018, 313.921 733.979 C 318.553 733.939, 322.828 733.590, 323.421 733.203 C 324.697 732.372, 331.032 732.087, 360.500 731.539 C 372.600 731.315, 388.800 730.897, 396.500 730.611 C 404.200 730.325, 412.750 730.126, 415.500 730.170 C 418.250 730.214, 421.850 730.210, 423.500 730.161 C 429.269 729.992, 450.518 729.124, 452.500 728.977 C 453.600 728.895, 455.400 728.852, 456.500 728.880 C 457.600 728.909, 467.275 728.930, 478 728.927 C 539.074 728.912, 594.122 729.856, 595.431 730.943 C 596.351 731.706, 597.035 731.753, 597.451 731.080 C 597.797 730.519, 599.966 730.279, 602.290 730.545 C 608.900 731.301, 622.954 731.380, 623.669 730.664 C 624.025 730.309, 624.908 730.509, 625.632 731.110 C 626.903 732.165, 648.448 732.550, 659.296 731.712 C 661.934 731.508, 664.341 731.742, 664.644 732.233 C 664.947 732.724, 670.214 733.091, 676.348 733.049 C 687.893 732.970, 693.682 733.601, 695.633 735.151 C 696.362 735.730, 696.983 735.487, 697.372 734.473 C 697.859 733.203, 699.594 732.907, 706.239 732.961 C 710.782 732.997, 722.016 732.909, 731.202 732.765 C 742.937 732.581, 748.251 732.851, 749.073 733.673 C 749.717 734.317, 750.870 734.604, 751.635 734.310 C 752.400 734.016, 753.675 734.315, 754.469 734.974 C 756.089 736.319, 758 735.561, 758 733.575 C 758 732.577, 759.718 732.373, 765.250 732.716 C 769.237 732.963, 773.898 733.591, 775.606 734.112 C 777.579 734.714, 779.639 734.707, 781.253 734.094 C 782.651 733.562, 784.067 733.400, 784.401 733.734 C 784.734 734.067, 786.468 734.456, 788.253 734.598 C 790.039 734.739, 793.678 735.332, 796.341 735.914 C 799.681 736.645, 801.779 736.653, 803.111 735.940 C 804.173 735.372, 805.509 735.196, 806.080 735.549 C 806.944 736.084, 832.191 736.945, 850.250 737.055 C 864.961 737.146, 867.500 736.512, 864.914 733.397 C 863.999 732.294, 861.864 731.918, 857.078 732.017 C 853.460 732.091, 848.576 731.955, 846.223 731.715 C 843.871 731.474, 841.694 731.686, 841.384 732.187 C 841.065 732.704, 840.222 732.599, 839.432 731.943 C 838.401 731.088, 837.223 731.075, 834.873 731.894 C 833.082 732.519, 831.225 732.628, 830.602 732.145 C 829.996 731.676, 825.954 731.216, 821.619 731.124 C 817.285 731.032, 813.353 730.718, 812.883 730.427 C 812.412 730.137, 810.363 730.358, 808.330 730.919 C 806.296 731.481, 804.153 731.563, 803.566 731.102 C 802.448 730.223, 797.894 729.719, 792.025 729.826 C 790.113 729.861, 788.235 729.381, 787.851 728.759 C 787.342 727.936, 786.792 727.927, 785.826 728.727 C 784.412 729.898, 774.119 729.809, 772.177 728.610 C 771.539 728.215, 768.240 728.136, 764.847 728.434 C 761.004 728.772, 758.172 728.558, 757.338 727.866 C 756.365 727.058, 755.639 727.055, 754.676 727.854 C 753.711 728.655, 753.041 728.641, 752.203 727.803 C 751.343 726.943, 750.428 726.940, 748.563 727.789 C 747.193 728.414, 745.873 728.604, 745.631 728.212 C 745.389 727.821, 742.111 727.649, 738.346 727.832 C 734.581 728.015, 727.450 728.274, 722.500 728.409 C 717.550 728.543, 712.707 729.007, 711.737 729.438 C 710.697 729.902, 709.383 729.732, 708.531 729.026 C 707.737 728.367, 706.698 728.069, 706.222 728.363 C 705.056 729.083, 700.472 729.111, 681 728.518 C 661.179 727.913, 660.053 727.811, 657.500 726.374 C 654.778 724.843, 646.073 725.264, 645.014 726.978 C 644.317 728.106, 643.719 728.046, 641.561 726.632 C 639.265 725.128, 638.703 725.094, 636.902 726.356 C 634.981 727.702, 630.671 727.723, 624.250 726.419 C 621.372 725.834, 621.312 724, 624.171 724 C 627.694 724, 629.879 721.127, 632.091 713.590 C 640.991 683.265, 653.374 649.962, 664.475 626.500 C 673.983 606.404, 674.855 604.451, 675.532 601.743 C 676.397 598.278, 674.287 594.870, 669.226 591.559 C 665.132 588.881, 661.316 587.808, 659 588.683 M 728.299 615.960 C 719.404 621.383, 720.068 634.957, 729.446 639.407 C 733.367 641.268, 739.133 640.940, 742.037 638.690 C 745.153 636.277, 748 631.098, 747.998 627.846 C 747.994 617.372, 736.930 610.697, 728.299 615.960 M 834.591 643.118 C 832.442 643.622, 828.367 645.359, 825.537 646.979 C 814.484 653.303, 807.553 664.536, 804.877 680.460 C 803.725 687.317, 803.400 688, 801.289 688 C 800.013 688, 795.436 689.800, 791.119 692 C 779.557 697.891, 774 697.326, 774 690.260 C 774 685.974, 776.850 680.514, 781.616 675.670 C 784.682 672.553, 785.860 671.959, 787.942 672.481 C 794.255 674.061, 796.309 674.173, 798.412 673.047 C 804.161 669.970, 805.958 659.172, 801.750 652.990 C 798.101 647.628, 794.672 645.676, 788.061 645.198 C 782.984 644.831, 781.142 645.213, 775.688 647.765 C 764.339 653.076, 754.185 665.645, 750.858 678.500 L 749.564 683.500 748.856 679 C 748.467 676.525, 748.115 669.516, 748.074 663.424 C 748.005 653.026, 747.851 652.208, 745.562 650.058 C 742.861 647.521, 736.278 646.350, 730.650 647.406 C 727.923 647.918, 726.942 648.729, 726.088 651.178 C 723.751 657.880, 725.338 711.026, 728.024 716.045 C 729.850 719.457, 735.365 721.223, 741.712 720.430 C 746.806 719.794, 747.317 719.486, 748.677 716.231 C 749.484 714.299, 750.049 711.094, 749.932 709.109 C 749.511 701.930, 749.946 701.225, 752.159 705.500 C 754.739 710.486, 761.481 717.035, 766.609 719.537 C 771.182 721.769, 782.274 722.133, 788.515 720.257 C 790.723 719.593, 795.898 716.791, 800.015 714.030 L 807.500 709.011 811.858 714.027 C 825.440 729.657, 847.157 729.543, 863.456 713.757 C 868.238 709.125, 869 707.872, 869 704.644 C 869 700.342, 866.817 695.527, 864.455 694.621 C 860.949 693.276, 855.224 694.200, 849.525 697.031 C 842.804 700.371, 835.124 701.059, 833.010 698.512 C 831.480 696.668, 832.253 696.366, 840.354 695.644 C 844.108 695.310, 848.838 693.874, 853.536 691.643 C 863.221 687.044, 864.456 684.818, 864.442 672 C 864.428 660.373, 861.988 653.920, 855.420 648.138 C 849.037 642.520, 843.170 641.106, 834.591 643.118 M 677.519 651.239 C 673.728 652.614, 665.014 658.185, 662.829 660.630 C 661.910 661.659, 659.887 664.975, 658.333 668 C 655.758 673.014, 655.509 674.429, 655.521 684 C 655.537 696.203, 657.214 700.616, 664.481 707.578 C 670.967 713.792, 677.051 716.329, 686.587 716.796 C 693.954 717.157, 695.243 716.922, 701.087 714.160 C 716.130 707.047, 724.224 691.947, 721.130 676.765 C 718.867 665.664, 713.563 658.711, 703.104 653.136 C 697.802 650.310, 696.393 650.008, 688.860 650.079 C 684.262 650.122, 679.158 650.645, 677.519 651.239 M 677.984 658.862 C 675.016 660.448, 674.456 661.315, 674.200 664.713 C 673.927 668.335, 674.194 668.844, 677.099 670.251 C 680.091 671.700, 680.434 671.672, 682.399 669.813 C 685.436 666.941, 693.540 667.716, 698.835 671.385 L 702.773 674.115 705.255 671.807 C 708.327 668.951, 707.554 666.066, 702.469 661.408 C 697.291 656.664, 684.572 655.342, 677.984 658.862 M 435.655 660.829 C 433.248 663.488, 433.610 664.032, 437 662.850 C 438.650 662.275, 440 661.173, 440 660.402 C 440 658.426, 437.618 658.660, 435.655 660.829 M 215.500 667 C 214.063 668.588, 213.990 669, 215.145 669 C 216.714 669, 219 667.102, 219 665.800 C 219 664.383, 217.359 664.946, 215.500 667 M 280.247 671.984 C 277.412 674.626, 272 686.098, 272 689.466 C 272 694.236, 275.236 691.998, 279.186 684.499 C 285.434 672.634, 285.938 666.682, 280.247 671.984 M 464 674.304 C 464 677.066, 458.890 682.161, 454 684.274 C 447.846 686.933, 446.632 687.282, 439.576 688.422 C 431.711 689.693, 430.272 691.275, 435.433 692.978 C 439.514 694.325, 440.974 693.976, 450.500 689.383 C 456.774 686.358, 457.889 686.116, 461.248 687.050 C 463.853 687.775, 465.483 689.033, 466.588 691.171 L 468.180 694.249 471.034 691.124 C 474.373 687.468, 476.181 687.291, 482.500 690 C 487.518 692.151, 493.489 692.637, 494.514 690.977 C 494.869 690.402, 492.596 688.852, 489.323 687.438 C 477.121 682.165, 470.652 678.457, 468.121 675.285 C 465.028 671.408, 464 671.163, 464 674.304 M 688 678 C 688 680.640, 688.346 681, 690.883 681 C 692.883 681, 693.920 680.413, 694.268 679.084 C 694.899 676.670, 693.276 675, 690.300 675 C 688.411 675, 688 675.536, 688 678" stroke="none" fill="#ec6913" fill-rule="evenodd" data-index="0" style="opacity: 1;"></path></svg>