<?xml version="1.0" standalone="no"?>
<!DOCTYPE svg PUBLIC "-//W3C//DTD SVG 20010904//EN"
 "http://www.w3.org/TR/2001/REC-SVG-20010904/DTD/svg10.dtd">
<svg version="1.0" xmlns="http://www.w3.org/2000/svg"
 width="300.000000pt" height="300.000000pt" viewBox="0 0 300.000000 300.000000"
 preserveAspectRatio="xMidYMid meet">
<metadata>
Created by potrace 1.10, written by Peter Selinger 2001-2011
</metadata>
<g transform="translate(0.000000,300.000000) scale(0.100000,-0.100000)"
fill="#000000" stroke="none">
<path d="M0 1500 l0 -1500 392 2 391 3 89 199 c49 109 94 219 100 245 6 25 15
57 21 71 6 14 12 32 13 40 2 8 7 16 13 18 5 2 7 10 4 19 -4 11 -2 14 5 9 6 -3
41 -2 78 4 36 6 69 9 71 6 2 -2 -27 -9 -66 -16 -45 -7 -72 -17 -75 -27 -5 -11
-2 -14 11 -9 17 6 16 5 0 -8 -18 -14 -18 -14 0 -18 18 -4 78 5 118 16 11 4 5
-1 -14 -9 -19 -9 -55 -17 -81 -17 -47 -1 -48 -2 -54 -37 -5 -35 -42 -133 -101
-271 -32 -76 -46 -113 -46 -120 0 -3 -6 -12 -14 -20 -7 -8 -16 -25 -19 -37 -4
-13 -12 -23 -17 -23 -5 0 -9 -4 -9 -10 0 -8 490 -16 490 -7 0 1 9 54 20 118
11 67 38 168 64 243 25 70 47 142 49 159 3 18 7 39 11 47 57 140 61 247 14
390 -17 52 -34 97 -37 100 -3 3 -7 16 -9 30 -1 13 -7 29 -13 35 -12 12 -116 9
-151 -4 -15 -5 -39 -4 -68 5 -54 17 -53 16 -45 4 3 -5 -27 6 -67 25 -40 19
-79 35 -87 35 -30 0 -90 24 -96 38 -4 11 -2 12 7 5 18 -14 108 -33 108 -22 0
5 25 -9 57 -31 31 -22 61 -40 67 -39 6 0 2 5 -9 10 -11 6 -30 24 -42 42 -13
18 -40 51 -62 74 -21 24 -34 43 -29 43 5 0 22 -15 39 -32 16 -18 29 -27 29
-20 0 6 -4 12 -10 12 -5 0 -10 5 -10 11 0 8 4 9 13 0 8 -6 17 -7 22 -3 4 4 3
-2 -3 -14 -13 -25 2 -58 17 -35 5 8 7 21 3 29 -3 9 -1 13 5 9 6 -4 14 -1 16 5
4 8 6 7 6 -4 1 -9 -3 -20 -9 -23 -13 -8 -13 -65 -1 -65 5 0 11 3 14 8 2 4 2 2
1 -5 -8 -34 38 -41 207 -33 l66 3 -19 38 c-22 45 -26 49 -103 70 l-60 16 5 39
c3 22 5 90 5 152 0 61 3 112 7 112 9 0 20 -37 22 -74 1 -18 7 -31 14 -30 7 1
23 2 36 3 19 1 23 5 19 21 -3 11 0 20 6 20 14 0 19 -25 26 -149 3 -68 11 -115
22 -135 79 -148 119 -262 134 -381 20 -153 18 -150 99 -120 42 16 49 16 98 0
29 -9 56 -14 61 -11 4 3 17 -1 27 -10 18 -14 18 -15 -2 -5 -12 6 -24 8 -26 5
-3 -2 -32 1 -64 9 -70 15 -91 13 -124 -14 -14 -12 -20 -18 -14 -15 16 8 27
-23 15 -38 -7 -8 -7 -25 -1 -47 5 -19 16 -64 26 -102 9 -37 22 -71 29 -75 22
-12 101 -222 84 -222 -5 0 -14 10 -20 23 -9 21 -9 21 -4 -3 3 -14 8 -34 10
-45 3 -11 13 -57 22 -102 l17 -83 249 0 249 0 -20 34 c-11 19 -46 92 -78 163
-31 70 -60 133 -64 138 -4 6 -15 33 -25 60 -36 101 -59 155 -67 155 -5 0 -6 5
-3 10 3 6 0 10 -7 10 -8 0 -9 3 -3 8 21 15 10 47 -20 60 l-30 12 32 -3 c21 -2
34 2 38 11 8 21 6 24 -7 17 -7 -4 -2 3 12 14 19 16 22 23 12 30 -11 6 -10 10
4 15 16 6 16 8 4 16 -12 8 -12 10 4 10 12 0 16 5 12 15 -3 8 -2 15 2 15 4 0
16 14 26 30 9 17 49 51 87 76 38 25 74 55 80 66 9 16 4 15 -31 -8 -22 -15 -43
-24 -46 -21 -3 3 12 15 34 26 38 19 132 126 132 150 0 12 48 61 74 76 22 13
12 46 -12 38 -9 -4 -19 -9 -22 -12 -3 -4 -30 -26 -60 -51 -71 -58 -76 -62 -83
-80 -5 -13 -6 -13 -6 0 -1 18 33 72 41 65 2 -3 23 15 46 40 22 25 46 45 51 45
6 0 11 9 11 19 0 28 37 15 44 -15 6 -23 26 -34 26 -14 0 5 11 20 25 34 14 14
25 29 25 34 0 6 7 12 15 16 22 8 18 33 -5 39 -11 3 -18 2 -15 -3 3 -4 -9 -13
-25 -20 -17 -7 -27 -17 -23 -24 3 -6 2 -8 -2 -3 -5 4 -17 0 -27 -10 -17 -15
-18 -15 -18 0 0 10 0 20 0 24 0 4 6 8 15 9 8 1 39 24 68 50 48 43 113 81 123
71 3 -2 -9 -10 -27 -17 -36 -16 -54 -52 -38 -81 6 -12 17 -18 26 -15 8 3 17 6
19 6 3 0 2 4 -1 10 -3 5 10 19 29 31 20 12 36 25 36 30 0 11 -33 -5 -69 -33
-13 -10 -26 -16 -29 -13 -8 8 30 45 62 62 26 13 27 16 12 25 -26 15 -91 0
-165 -38 -57 -29 -62 -30 -36 -9 39 33 126 65 174 65 32 0 44 -6 65 -31 32
-38 28 -45 -66 -106 -38 -25 -86 -67 -110 -98 -24 -31 -51 -58 -60 -61 -21 -6
-78 -70 -78 -88 0 -8 -7 -19 -15 -26 -9 -7 -27 -36 -40 -64 -20 -40 -41 -63
-100 -106 -99 -72 -110 -84 -134 -159 -11 -35 -25 -69 -30 -75 -13 -15 -8 -52
14 -101 9 -22 27 -69 40 -105 13 -36 60 -144 105 -240 45 -96 84 -181 87 -187
4 -10 89 -13 379 -13 l374 0 0 1500 0 1500 -1500 0 -1500 0 0 -1500z m1122
901 c15 -5 29 -15 33 -20 8 -14 5 -14 -41 2 -22 8 -64 13 -94 12 -44 -2 -49
-1 -25 6 21 6 10 7 -33 3 -35 -3 -73 -9 -85 -14 -19 -7 -17 -9 14 -9 44 -1
149 -73 149 -103 0 -14 -7 -10 -32 18 -35 40 -98 73 -138 74 -24 0 -121 -44
-200 -91 l-35 -21 40 36 c56 51 191 116 256 125 57 7 148 -2 191 -18z m-514
-8 c4 -24 -19 -34 -68 -30 -24 2 -25 -1 -28 -55 -3 -57 -2 -58 23 -58 15 0 24
4 20 10 -3 6 -2 10 4 10 15 0 21 -14 14 -38 -4 -16 -13 -22 -34 -22 l-29 0 0
-125 0 -125 -26 0 -25 0 3 125 c3 122 2 125 -18 125 -24 0 -36 20 -24 39 10
17 51 5 44 -12 -2 -7 4 -13 16 -14 26 -2 26 23 0 30 -17 4 -20 14 -20 64 0 85
19 103 100 100 38 -2 45 -5 48 -24z m610 -4 c4 -32 22 -39 114 -39 50 0 94 9
165 32 92 30 107 32 242 33 l143 0 47 -192 c26 -106 49 -195 52 -198 7 -6 79
256 79 286 0 22 0 22 25 -5 23 -25 24 -27 9 -69 -13 -35 -28 -83 -80 -249 -4
-14 1 -18 23 -19 29 0 76 -16 58 -19 -5 -1 -25 -1 -43 0 -40 2 -112 -38 -137
-77 -11 -15 -43 -71 -72 -123 l-54 -94 0 -116 c-1 -239 0 -250 16 -250 8 0 15
3 16 8 0 4 2 30 4 57 1 28 7 95 13 150 7 55 12 129 13 165 l2 65 6 -55 c5 -45
7 -50 13 -30 4 14 8 33 8 43 0 16 40 65 40 50 1 -16 29 43 30 62 1 21 45 60
54 47 7 -11 -6 -27 -28 -35 -10 -4 -16 -13 -13 -21 3 -7 9 -116 12 -242 l7
-229 -144 -36 c-81 -20 -153 -32 -164 -29 -18 7 -18 7 1 13 11 3 32 8 46 11
17 4 29 14 33 30 3 13 9 31 12 40 5 13 -2 16 -44 16 l-50 0 -11 -50 c-6 -28
-11 -57 -11 -63 0 -7 -20 -59 -46 -116 -40 -92 -55 -139 -79 -245 -3 -15 -8
-26 -11 -23 -13 13 23 143 72 264 48 116 56 146 65 240 13 133 17 155 28 149
5 -3 20 3 34 14 35 28 45 25 17 -5 -13 -14 -19 -25 -13 -25 6 0 19 -3 29 -7
15 -5 16 -1 12 34 -4 24 0 49 8 64 24 43 15 43 -32 -1 -76 -70 -120 -85 -254
-85 -106 0 -119 2 -173 29 -32 15 -74 43 -92 62 -19 19 -37 34 -41 34 -4 0 -3
-82 1 -182 6 -152 5 -180 -7 -171 -7 6 -50 19 -96 29 -70 15 -91 16 -128 6
-24 -7 -52 -12 -62 -12 -16 1 -16 2 1 14 19 15 31 106 15 106 -5 0 -7 4 -4 8
3 5 -1 9 -9 9 -7 0 -17 -12 -20 -26 -7 -24 -8 -25 -15 -6 -26 64 1 300 49 427
22 57 38 72 67 61 13 -5 10 -9 -13 -18 -23 -10 -32 -25 -50 -81 -49 -152 -68
-326 -38 -338 12 -4 14 -2 6 11 -6 11 -6 24 0 36 6 10 8 26 4 36 -3 11 0 18 8
18 9 0 12 -10 10 -26 l-3 -26 9 25 c4 14 5 32 1 40 -4 8 -6 20 -5 25 2 6 6 22
9 38 11 50 26 29 20 -30 -3 -31 -6 -59 -6 -62 -4 -20 18 -41 41 -41 25 1 25 1
7 15 -16 12 -17 15 -4 15 19 0 24 12 27 72 3 49 -13 68 -58 68 -28 0 -36 18
-17 39 8 9 17 33 18 52 2 19 13 44 26 57 12 13 22 30 22 40 0 15 1 15 17 -1
10 -10 17 -32 17 -54 0 -21 -2 -101 -3 -178 -3 -150 7 -292 20 -301 5 -3 9 28
9 68 0 69 14 226 29 311 10 63 26 38 23 -35 l-3 -68 30 0 c20 0 34 7 41 20 9
16 1 38 -45 122 -80 147 -141 204 -212 199 -38 -2 -88 21 -97 44 -12 31 -6 83
12 104 9 12 40 27 70 33 47 12 52 15 52 40 0 17 -7 31 -20 38 -24 13 -67 3
-80 -19 -8 -15 -10 -14 -27 2 -17 17 -17 19 7 37 35 26 76 32 116 15 45 -19
54 -46 54 -168 l0 -102 58 -17 c71 -21 116 -62 197 -177 65 -93 123 -147 174
-161 111 -31 182 11 302 177 72 99 130 151 187 166 30 8 41 15 37 27 -10 34
-115 412 -115 417 0 2 -6 1 -12 -4 -7 -4 -51 -6 -98 -5 -75 3 -99 -1 -200 -33
-103 -33 -124 -36 -195 -32 -44 2 -87 7 -95 11 -13 5 -15 -16 -12 -166 2 -97
8 -178 14 -185 5 -7 7 -16 4 -22 -4 -5 3 -12 14 -16 11 -3 44 -33 73 -66 28
-34 71 -72 95 -86 40 -24 47 -25 84 -14 28 9 60 32 102 76 34 35 77 73 96 84
29 17 31 21 14 21 -31 0 -50 26 -34 45 10 12 15 12 35 -1 13 -9 36 -14 52 -12
22 2 29 9 31 29 3 22 -4 31 -35 49 -66 40 -83 60 -83 100 0 63 67 98 128 66
39 -20 47 -33 32 -51 -10 -12 -16 -11 -40 6 -30 23 -64 19 -74 -8 -8 -20 5
-35 65 -74 75 -48 79 -111 9 -156 -67 -42 -91 -66 -148 -142 -62 -81 -116
-121 -169 -121 -68 0 -112 31 -190 135 -25 33 -63 76 -84 95 l-38 35 -1 220
c0 121 -1 224 0 228 0 5 10 7 23 5 15 -2 23 -11 25 -29z m942 23 c0 -15 -66
-79 -77 -75 -7 2 -10 10 -8 16 22 62 24 64 54 65 17 0 31 -2 31 -6z m260 -41
c12 -30 6 -56 -10 -46 -4 3 -6 -5 -2 -17 7 -28 -16 -15 -27 15 -9 23 5 77 19
77 4 0 13 -13 20 -29z m-1672 -145 c15 -15 24 -39 29 -74 l6 -52 -82 0 -81 0
0 -28 c0 -63 57 -92 108 -56 18 13 26 13 38 4 19 -16 2 -38 -43 -56 -94 -40
-170 56 -149 187 9 54 32 87 70 98 41 13 76 5 104 -23z m392 9 c0 -15 -6 -25
-14 -25 -33 0 -46 -41 -46 -142 0 -91 -1 -98 -20 -98 -14 0 -20 7 -20 21 0 11
-2 74 -3 140 -4 110 -2 119 15 119 10 0 18 -7 18 -16 0 -13 5 -12 26 5 35 27
44 26 44 -4z m287 -1 c14 -8 24 -28 28 -51 3 -21 8 -48 11 -60 4 -22 2 -23
-82 -23 l-86 0 7 -32 c4 -18 14 -41 23 -50 19 -22 65 -23 86 -3 12 13 46 12
46 -2 0 -20 -27 -44 -58 -54 -55 -16 -107 7 -128 58 -24 57 -16 174 15 207 36
38 89 42 138 10z m211 0 c22 -15 23 -17 7 -34 -16 -18 -17 -18 -36 1 -22 22
-32 23 -60 9 -34 -19 -22 -47 36 -85 85 -54 95 -118 26 -159 -28 -16 -38 -17
-71 -7 -49 14 -67 35 -50 56 12 14 15 14 30 0 27 -24 84 -16 88 12 3 17 -10
30 -55 60 -68 45 -87 86 -59 128 31 47 90 54 144 19z m779 10 c-3 -3 -12 -4
-19 -1 -8 3 -5 6 6 6 11 1 17 -2 13 -5z m-113 -30 c3 -8 2 -12 -4 -9 -6 3 -10
10 -10 16 0 14 7 11 14 -7z m12 -202 c-10 -10 -16 -12 -16 -5 0 7 5 15 10 18
6 3 11 16 11 28 2 21 2 21 6 -2 3 -13 -2 -30 -11 -39z m-90 -19 c10 3 30 0 43
-7 20 -11 21 -14 7 -19 -10 -4 -15 -3 -11 3 3 6 -3 10 -14 10 -25 0 -39 -20
-14 -21 10 0 13 -3 6 -6 -21 -8 -77 16 -92 39 -13 22 -13 23 6 6 30 -27 51
-23 25 5 -12 13 -22 27 -22 33 0 5 10 -4 23 -20 16 -20 29 -27 43 -23z m-125
-107 c49 -24 104 -303 89 -455 -13 -119 -14 -123 -58 -115 -20 4 -46 11 -57
17 -11 6 -32 10 -47 8 -25 -2 -28 1 -28 26 0 16 7 56 16 88 13 49 15 91 10
222 -6 159 -5 162 18 190 12 15 21 35 19 43 -4 12 -3 12 5 2 5 -8 20 -19 33
-26z m-1354 -71 c28 -20 45 -80 42 -153 -3 -94 12 -194 37 -247 13 -27 26 -62
29 -76 6 -23 2 -27 -35 -38 -23 -7 -44 -11 -46 -8 -5 5 32 44 47 49 19 6 -24
102 -48 106 -10 2 -25 6 -33 9 -8 3 -20 5 -27 4 -18 -3 -27 20 -12 30 8 5 26
9 42 9 29 0 34 9 15 28 -10 10 -10 15 1 21 9 6 11 18 6 40 -6 28 -10 31 -45
31 -21 0 -42 -4 -45 -10 -3 -5 -10 -37 -16 -70 -8 -48 -6 -66 6 -90 8 -16 16
-37 18 -47 1 -10 11 -31 21 -46 23 -34 15 -45 -18 -24 -26 18 -45 62 -49 117
-6 90 25 341 46 368 13 16 38 15 64 -3z m1591 3 c11 -15 29 -144 37 -278 9
-147 -8 -181 -147 -283 -21 -16 -38 -24 -38 -19 0 5 12 17 26 27 21 13 23 19
13 31 -15 18 -4 31 14 15 12 -9 21 -3 49 31 67 82 69 107 11 125 -35 11 -67 8
-59 -6 2 -3 -7 -14 -20 -24 -24 -18 -24 -18 -14 5 5 13 13 87 19 164 9 145 23
192 58 213 24 14 39 13 51 -1z m-1990 -173 c-3 -3 -9 2 -12 12 -6 14 -5 15 5
6 7 -7 10 -15 7 -18z m385 -76 c-4 -13 -9 -17 -15 -11 -11 11 -3 32 12 32 4 0
6 -9 3 -21z m1600 -136 c7 -6 -11 -33 -22 -33 -4 0 -7 9 -7 20 0 19 16 27 29
13z m-1714 -69 c47 -19 35 -26 -14 -9 -22 8 -69 14 -104 15 -53 0 -69 -4 -88
-22 -13 -12 -23 -17 -23 -11 0 17 34 41 65 45 45 6 126 -3 164 -18z m-11 -50
c34 -19 64 -34 67 -34 3 0 10 0 15 0 6 0 10 -7 10 -15 0 -11 -9 -15 -30 -13
-16 1 -30 7 -30 12 0 5 -3 7 -6 3 -4 -3 -19 0 -35 8 -36 19 -36 19 -43 -11 -4
-15 -2 -32 5 -41 11 -13 15 -11 32 9 17 22 18 22 8 1 -15 -30 -14 -38 4 -23
13 10 18 11 28 1 7 -7 8 -12 2 -11 -22 5 -24 -1 -8 -20 19 -22 33 -26 33 -9 0
5 -6 7 -12 4 -7 -4 -3 2 10 13 12 11 22 25 22 31 0 6 4 11 10 11 11 0 3 -24
-17 -57 -9 -13 -10 -23 -4 -27 6 -4 17 6 25 21 8 15 15 23 16 17 0 -5 -6 -19
-14 -29 -12 -17 -10 -21 28 -46 53 -36 76 -55 76 -63 0 -4 -24 11 -53 34 -30
22 -57 40 -61 40 -12 0 24 -59 46 -75 13 -8 22 -19 21 -23 -5 -21 35 -76 87
-116 66 -52 109 -93 130 -125 11 -15 35 -26 85 -36 l70 -14 -67 6 c-63 5 -66
4 -61 -15 4 -16 12 -19 41 -17 21 1 25 0 10 -2 -20 -3 -28 -10 -28 -24 0 -21
8 -23 42 -10 13 4 64 11 113 14 53 3 80 2 65 -3 -14 -4 -50 -8 -81 -9 -57 -1
-116 -16 -134 -33 -6 -7 8 -8 40 -4 109 12 171 16 138 7 -18 -5 -68 -11 -110
-15 l-78 -6 -24 57 c-39 97 -44 104 -106 157 -85 72 -137 126 -157 161 -10 17
-26 41 -37 55 -11 14 -22 38 -24 53 -2 21 -18 38 -68 72 -35 25 -77 50 -94 56
-70 29 -130 66 -133 83 -3 14 0 17 12 13 8 -3 18 -1 22 4 6 10 67 4 87 -8 19
-12 -7 -21 -34 -11 -49 17 -45 1 8 -27 26 -14 41 -24 33 -22 -58 16 -65 17
-35 2 42 -20 62 -18 75 6 15 26 0 45 -55 70 l-40 19 50 -7 c28 -3 78 -21 113
-39z m1385 -72 c-57 -84 -100 -112 -169 -111 -51 0 -158 20 -169 30 -14 14 24
16 60 2 66 -23 154 -21 198 6 30 19 37 28 37 55 0 21 8 40 23 53 24 22 60 43
65 39 1 -2 -19 -35 -45 -74z m96 61 c0 -5 -17 -21 -37 -38 -36 -30 -36 -19 1
23 20 22 38 29 36 15z m-164 -45 c-7 -35 -45 -102 -45 -81 0 6 5 15 10 18 18
11 11 23 -10 18 -11 -3 -20 -11 -20 -18 0 -13 -21 -25 -43 -25 -6 0 -2 7 9 15
10 8 15 15 10 15 -6 0 -1 7 10 15 18 14 17 14 -11 5 l-30 -10 24 20 c17 15 27
18 35 10 14 -14 29 -13 24 2 -4 10 27 46 40 48 2 0 1 -15 -3 -32z m-1195 2 c0
-5 -5 -10 -11 -10 -5 0 -7 5 -4 10 3 6 8 10 11 10 2 0 4 -4 4 -10z m126 -38
c-6 -5 -76 32 -76 40 0 5 18 -2 39 -14 22 -12 38 -24 37 -26z m280 6 c-19 -26
-22 -7 -4 25 7 13 13 17 15 10 3 -7 -3 -23 -11 -35z m44 -4 c0 5 7 3 15 -4 10
-9 15 -9 15 -1 0 6 7 11 15 11 8 0 15 -3 15 -7 0 -15 -35 -43 -54 -43 -17 0
-21 7 -22 31 -1 20 2 26 7 17 5 -7 9 -9 9 -4z m865 -26 c-44 -40 -193 -128
-180 -107 4 5 30 21 58 36 29 14 54 29 57 34 9 13 95 79 104 79 5 0 -13 -19
-39 -42z m-1295 -10 c0 -5 -4 -8 -10 -8 -5 0 -10 7 -10 16 0 8 -4 12 -10 9 -6
-3 -7 1 -4 10 6 14 8 14 20 -2 7 -10 14 -21 14 -25z m1430 37 c0 -6 -61 -38
-79 -41 -8 -2 -18 -9 -22 -16 -7 -10 -9 -10 -9 2 0 13 22 25 108 59 1 1 2 -1
2 -4z m-395 -16 c11 -17 -1 -21 -15 -4 -8 9 -8 15 -2 15 6 0 14 -5 17 -11z
m463 -18 c-7 -11 -16 -17 -22 -14 -5 3 -1 12 9 20 25 18 27 17 13 -6z m-1428
-35 c0 -2 -9 -6 -20 -9 -11 -3 -18 -1 -14 4 5 9 34 13 34 5z m1353 -3 c3 -5
-5 -8 -18 -8 -13 0 -21 3 -18 8 2 4 10 7 18 7 8 0 16 -3 18 -7z m-104 -68 c-1
-30 -5 -52 -10 -50 -4 3 -6 24 -4 48 4 57 4 57 10 57 3 0 5 -25 4 -55z m-1219
35 c0 -5 -2 -10 -4 -10 -3 0 -8 5 -11 10 -3 6 -1 10 4 10 6 0 11 -4 11 -10z
m50 6 c0 -2 -9 -6 -20 -9 -11 -3 -18 -1 -14 4 5 9 34 13 34 5z m111 -12 c10
-13 10 -17 -2 -25 -8 -5 -9 -9 -3 -9 6 0 11 -12 11 -27 l0 -28 -12 30 c-7 16
-12 36 -10 45 1 8 -3 18 -9 22 -8 6 -8 8 0 8 6 0 17 -7 25 -16z m209 -18 c0
-11 -19 -15 -25 -6 -3 5 1 10 9 10 9 0 16 -2 16 -4z m805 -13 c-10 -3 -30 -12
-42 -20 -13 -9 -27 -13 -30 -9 -11 11 27 32 60 33 18 1 24 -1 12 -4z m-215
-13 c-18 -12 -140 -11 -140 2 0 4 35 8 78 8 54 0 73 -3 62 -10z m-830 -11 c0
-5 -4 -7 -10 -4 -5 3 -10 2 -10 -2 0 -5 -12 -10 -27 -11 -27 -1 -27 -1 -9 13
23 17 56 20 56 4z m1166 -1 c4 -6 3 -8 -4 -4 -5 3 -12 0 -15 -6 -2 -7 -8 -9
-13 -5 -5 4 -2 12 6 17 19 12 17 12 26 -2z m-800 -117 c23 -29 34 -54 33 -75
l-1 -31 -12 33 c-6 18 -15 30 -19 26 -4 -4 -7 1 -7 10 0 12 -5 16 -16 12 -9
-3 -12 -2 -9 5 7 11 -17 53 -46 81 -10 10 -20 13 -23 7 -2 -5 -3 -4 -2 3 2 7
-4 22 -13 33 -9 10 6 1 33 -20 27 -22 64 -59 82 -84z m-36 115 c0 -3 -4 -8
-10 -11 -5 -3 -10 -1 -10 4 0 6 5 11 10 11 6 0 10 -2 10 -4z m630 -6 c0 -5 -5
-10 -11 -10 -5 0 -7 5 -4 10 3 6 8 10 11 10 2 0 4 -4 4 -10z m-246 -24 c-3 -8
2 -16 13 -19 10 -3 4 -5 -14 -6 -37 -1 -39 1 -17 23 19 20 25 20 18 2z m56 -1
c-7 -9 -15 -13 -17 -11 -7 7 7 26 19 26 6 0 6 -6 -2 -15z m260 -15 c-8 -5 -17
-7 -19 -4 -3 3 1 9 9 14 8 5 17 7 19 4 3 -3 -1 -9 -9 -14z m-1175 -20 c10 -11
16 -20 13 -20 -3 0 -13 9 -23 20 -10 11 -16 20 -13 20 3 0 13 -9 23 -20z
m1105 -14 c0 -3 -4 -8 -10 -11 -5 -3 -10 -1 -10 4 0 6 5 11 10 11 6 0 10 -2
10 -4z m-30 -13 c0 -5 -12 -16 -25 -26 -18 -13 -25 -14 -25 -5 0 11 8 18 48
37 1 0 2 -2 2 -6z m-631 -55 c-17 -33 -21 -36 -17 -13 2 17 16 34 26 35 1 0
-3 -10 -9 -22z m571 7 c0 -8 -4 -15 -8 -15 -5 0 -9 7 -9 15 0 8 4 15 9 15 4 0
8 -7 8 -15z m-36 -57 c-8 -12 -31 8 -37 33 -6 21 -5 21 18 -1 14 -13 22 -27
19 -32z m-482 -6 c-24 -24 -64 -52 -75 -52 -10 0 74 68 86 69 4 1 -1 -7 -11
-17z m439 -18 c13 -14 17 -23 9 -19 -13 5 -46 45 -37 45 2 0 14 -11 28 -26z
m-30 -1 c12 -16 12 -17 -2 -6 -9 7 -20 9 -24 5 -5 -4 -5 -1 -1 6 9 16 11 15
27 -5z m-28 -16 c4 3 7 -1 7 -11 0 -13 -4 -15 -18 -7 -10 5 -25 18 -33 27 -13
17 -13 17 12 1 14 -10 29 -14 32 -10z m-526 7 c-3 -3 -12 -4 -19 -1 -8 3 -5 6
6 6 11 1 17 -2 13 -5z m158 -24 c-15 -16 -31 -29 -34 -28 -19 2 -31 -3 -26
-12 3 -6 -1 -7 -10 -4 -11 5 -1 15 37 39 66 41 68 42 33 5z m343 -9 c18 -8 30
-16 28 -19 -7 -6 -69 19 -78 32 -13 18 -8 32 5 16 7 -9 27 -22 45 -29z m-664
0 c3 -4 -4 -7 -14 -7 -11 0 -22 6 -24 12 -5 12 31 8 38 -5z m720 8 c-3 -6 0
-15 7 -20 9 -6 10 -9 2 -9 -15 0 -26 17 -18 30 3 6 8 10 11 10 3 0 2 -5 -2
-11z m-163 -22 c-10 -9 -11 -8 -5 6 3 10 9 15 12 12 3 -3 0 -11 -7 -18z m406
-13 c-3 -3 -12 -4 -19 -1 -8 3 -5 6 6 6 11 1 17 -2 13 -5z m-552 -14 c3 -6 -1
-7 -9 -4 -18 7 -21 14 -7 14 6 0 13 -4 16 -10z m310 0 c3 -6 -1 -7 -9 -4 -18
7 -21 14 -7 14 6 0 13 -4 16 -10z m232 -16 c-3 -3 -12 -4 -19 -1 -8 3 -5 6 6
6 11 1 17 -2 13 -5z m-804 -11 c-7 -2 -21 -2 -30 0 -10 3 -4 5 12 5 17 0 24
-2 18 -5z m177 -13 c-8 -5 -19 -10 -25 -10 -5 0 -3 5 5 10 8 5 20 10 25 10 6
0 3 -5 -5 -10z m400 -19 l25 -12 -25 6 c-14 3 -46 8 -72 12 -27 3 -48 9 -48
13 0 9 87 -5 120 -19z m205 -1 c-3 -5 -16 -10 -28 -9 -20 1 -20 2 3 9 14 4 26
8 28 9 2 1 0 -3 -3 -9z m-265 -14 c0 -9 -30 -14 -35 -6 -4 6 3 10 14 10 12 0
21 -2 21 -4z m127 -2 c-3 -3 -12 -4 -19 -1 -8 3 -5 6 6 6 11 1 17 -2 13 -5z
m40 -10 c-3 -3 -12 -4 -19 -1 -8 3 -5 6 6 6 11 1 17 -2 13 -5z m-584 -11 c-7
-2 -19 -2 -25 0 -7 3 -2 5 12 5 14 0 19 -2 13 -5z m630 0 c-7 -2 -19 -2 -25 0
-7 3 -2 5 12 5 14 0 19 -2 13 -5z m-289 -85 c4 -28 12 -61 18 -72 8 -16 8 -18
-2 -10 -11 11 -23 47 -40 129 -7 33 -6 37 5 22 7 -9 16 -41 19 -69z m104 55
c-10 -2 -26 -2 -35 0 -10 3 -2 5 17 5 19 0 27 -2 18 -5z m-49 -26 c9 4 13 3
10 -1 -4 -4 -16 -8 -28 -11 -14 -3 -21 1 -21 13 0 12 3 13 11 5 6 -6 19 -9 28
-6z m-559 -37 c-8 -5 -22 -9 -30 -9 -10 0 -8 3 5 9 27 12 43 12 25 0z m560 -9
l-25 -7 23 -15 c27 -17 28 -28 2 -26 -10 1 -17 3 -15 6 3 2 -1 14 -9 26 -13
20 -12 21 18 22 28 1 29 1 6 -6z m20 -71 c-12 -8 -12 -10 4 -16 14 -5 15 -9 4
-15 -10 -7 -9 -9 3 -9 9 0 24 -15 33 -34 20 -43 20 -57 -1 -31 -15 20 -15 20
-10 0 2 -11 8 -29 12 -40 14 -42 -17 17 -37 69 -32 83 -32 86 -12 86 16 0 16
-2 4 -10z m-27 -57 c23 -63 15 -66 -11 -3 -11 27 -18 50 -14 50 4 0 15 -21 25
-47z m110 -133 c3 -11 1 -20 -3 -20 -4 0 -6 -10 -3 -22 3 -13 3 -20 -1 -17 -9
8 -14 89 -5 83 4 -2 9 -13 12 -24z m-460 -80 c-3 -12 -8 -19 -11 -16 -5 6 5
36 12 36 2 0 2 -9 -1 -20z"/>
<path d="M495 2380 c-3 -6 1 -7 9 -4 18 7 21 14 7 14 -6 0 -13 -4 -16 -10z"/>
<path d="M906 2099 c-78 -21 -90 -99 -15 -99 36 0 51 21 47 68 -3 37 -4 38
-32 31z"/>
<path d="M935 1980 c-3 -5 -1 -10 4 -10 6 0 11 5 11 10 0 6 -2 10 -4 10 -3 0
-8 -4 -11 -10z"/>
<path d="M1955 1960 c-10 -11 -28 -20 -40 -20 -46 0 -140 -92 -196 -190 -24
-43 -116 -129 -156 -145 -60 -25 -120 -25 -172 1 -64 32 -99 66 -169 164 -69
98 -112 141 -165 165 -46 22 -61 11 -26 -18 33 -27 90 -117 114 -179 28 -75
135 -176 195 -185 8 -1 43 -7 77 -14 50 -10 76 -10 133 0 38 7 70 17 70 22 0
6 4 8 8 5 5 -3 31 8 59 24 49 28 98 91 133 170 5 14 19 39 30 55 11 17 26 42
35 57 8 15 35 43 60 62 25 19 42 37 37 40 -5 3 -17 -3 -27 -14z"/>
<path d="M1616 1844 c-95 -107 -182 -111 -275 -13 -17 18 -31 28 -31 23 0 -6
21 -33 48 -61 54 -58 101 -77 156 -62 33 9 95 65 120 107 6 11 17 29 24 41 19
31 12 26 -42 -35z"/>
<path d="M975 1762 c-13 -9 -35 -49 -35 -62 0 -5 8 -10 19 -10 20 0 36 36 20
46 -6 3 -5 11 2 20 12 15 10 18 -6 6z"/>
<path d="M1920 1717 c0 -9 -5 -17 -11 -19 -5 -2 -13 -22 -16 -44 -5 -40 -4
-42 27 -46 l31 -5 -3 60 c-2 37 -8 62 -15 65 -7 2 -13 -3 -13 -11z"/>
<path d="M1089 1593 c0 -5 -2 -17 -4 -27 -8 -43 -9 -82 -1 -94 4 -6 21 -12 39
-12 35 0 27 16 -13 23 -21 4 -20 4 8 6 32 1 32 2 32 50 0 35 -4 51 -16 55 -22
8 -44 8 -45 -1z"/>
<path d="M1861 1537 l2 -52 43 -2 44 -1 0 54 0 54 -45 0 -46 0 2 -53z m76 -19
c-3 -8 -6 -5 -6 6 -1 11 2 17 5 13 3 -3 4 -12 1 -19z"/>
<path d="M896 1483 c22 -18 39 -63 24 -63 -4 0 -4 -15 -1 -32 6 -29 11 -33 37
-30 52 5 56 9 48 49 -4 21 -7 45 -6 55 0 11 -11 18 -36 23 -20 3 -48 9 -62 11
l-25 6 21 -19z"/>
<path d="M1670 1449 c0 -49 0 -49 28 -43 26 6 26 6 7 -10 -19 -14 -18 -15 12
-4 27 10 32 17 36 52 2 23 3 42 3 42 -1 1 -20 4 -43 7 l-43 5 0 -49z"/>
<path d="M1885 1469 c-10 -15 -2 -19 24 -12 17 4 19 8 9 14 -18 12 -26 11 -33
-2z"/>
<path d="M1070 1421 c4 -15 4 -35 -1 -42 -13 -20 -11 -36 4 -36 6 0 29 -3 50
-7 l37 -7 0 54 c0 53 -1 55 -31 61 -61 12 -68 9 -59 -23z"/>
<path d="M1879 1443 c-29 -4 -39 -25 -39 -81 l0 -32 43 6 c62 10 72 18 72 61
0 52 -8 57 -76 46z"/>
<path d="M2385 2350 c-3 -6 1 -7 9 -4 18 7 21 14 7 14 -6 0 -13 -4 -16 -10z"/>
<path d="M647 2208 c-9 -7 -20 -28 -23 -45 l-6 -33 56 0 c55 0 56 1 56 28 0
49 -47 77 -83 50z"/>
<path d="M600 2109 c0 -5 5 -7 10 -4 6 3 10 8 10 11 0 2 -4 4 -10 4 -5 0 -10
-5 -10 -11z"/>
<path d="M1061 2194 c0 -11 3 -14 6 -6 3 7 2 16 -1 19 -3 4 -6 -2 -5 -13z"/>
<path d="M1332 2203 c-11 -10 -23 -30 -26 -45 l-6 -28 61 1 61 1 -6 32 c-10
52 -48 70 -84 39z"/>
<path d="M1283 2115 c0 -8 4 -12 9 -9 5 3 6 10 3 15 -9 13 -12 11 -12 -6z"/>
<path d="M2044 1845 c-16 -25 -16 -34 1 -120 8 -37 8 -38 47 -40 40 -3 52 3
40 18 -5 7 -10 19 -11 27 -2 21 -8 101 -10 123 -2 27 -47 22 -67 -8z"/>
<path d="M2076 1658 c3 -4 -4 -8 -15 -8 -18 0 -21 -6 -21 -51 0 -36 3 -48 12
-43 8 5 9 2 5 -9 -5 -14 0 -17 26 -19 57 -3 62 -4 76 -12 12 -8 13 -2 8 30 -4
21 -7 51 -7 67 0 15 -4 27 -9 27 -5 0 -8 -19 -7 -41 3 -31 1 -37 -6 -25 -6 10
-8 35 -6 56 3 38 3 39 -29 38 -18 -1 -30 -5 -27 -10z"/>
<path d="M2062 1495 c-17 -9 -20 -14 -10 -18 9 -4 8 -6 -3 -6 -11 -1 -19 -14
-23 -38 -4 -21 -10 -46 -13 -56 -4 -15 -1 -18 15 -13 11 4 41 -1 67 -10 31
-10 51 -12 57 -6 6 6 12 41 14 79 4 65 3 67 -10 38 -8 -16 -13 -40 -11 -53 2
-12 0 -20 -5 -17 -5 3 -10 -7 -13 -22 -2 -16 -3 2 -3 39 1 50 5 69 16 73 13 5
13 7 0 15 -20 13 -50 11 -78 -5z"/>
<path d="M686 1793 c-13 -44 -25 -147 -18 -160 6 -11 13 -8 32 12 24 26 51 36
31 12 -12 -16 -5 -27 18 -27 14 0 14 2 1 10 -8 5 -10 10 -4 10 12 0 12 56 -1
67 -4 5 -6 3 -2 -2 3 -6 2 -17 -4 -25 -7 -12 -9 -12 -9 3 0 10 -7 20 -15 23
-14 6 -13 8 2 19 10 7 21 11 25 9 13 -8 9 41 -4 54 -18 18 -46 15 -52 -5z"/>
<path d="M748 1483 c6 -2 18 -2 25 0 6 3 1 5 -13 5 -14 0 -19 -2 -12 -5z"/>
<path d="M2270 1778 c-15 -24 -20 -48 -19 -85 2 -47 4 -51 21 -42 12 7 18 6
18 -1 0 -6 10 -10 23 -8 16 2 21 9 19 23 -2 11 -3 35 -2 53 0 24 -4 32 -17 32
-11 0 -14 3 -7 8 6 4 14 17 18 30 12 36 -30 29 -54 -10z"/>
<path d="M2254 1621 c3 -5 2 -11 -3 -13 -4 -1 -10 -28 -13 -59 l-4 -57 35 -5
c20 -3 44 -8 54 -12 17 -7 18 -2 14 71 l-5 79 -42 3 c-25 2 -40 -1 -36 -7z"/>
<path d="M1180 1211 c0 -6 4 -13 10 -16 6 -3 7 1 4 9 -7 18 -14 21 -14 7z"/>
<path d="M1245 1423 c0 -41 9 -53 40 -52 20 0 20 0 0 10 -17 8 -16 9 8 6 25
-4 27 -2 27 34 0 38 -1 39 -37 39 -37 0 -38 -1 -38 -37z"/>
<path d="M2580 1355 c-14 -8 -20 -14 -14 -15 5 0 19 7 30 15 24 18 16 19 -16
0z"/>
<path d="M1234 1318 c1 -23 6 -32 21 -34 11 -1 31 -5 45 -8 24 -4 25 -3 22 35
-4 39 -4 39 -47 39 -41 0 -42 -1 -41 -32z"/>
<path d="M1507 704 c-4 -4 -7 -16 -7 -27 0 -21 -43 -167 -92 -312 -17 -49 -43
-151 -58 -225 l-27 -135 190 -3 c104 -1 192 -1 194 2 9 9 -62 300 -97 391 -51
136 -72 200 -84 263 -6 30 -14 50 -19 46z"/>
</g>
</svg>
