<svg width="757" height="771" viewBox="0 0 757 771" fill="none" xmlns="http://www.w3.org/2000/svg">
<path d="M545.949 352.09C542.36 317.241 538.704 282.403 534.98 247.577C533.534 234.121 531.537 220.769 528.992 207.519C525.476 189.238 509.377 165.2 488.753 167.564C473.624 169.312 456.308 172.333 436.806 176.628C436.375 176.725 435.925 176.644 435.553 176.403C435.181 176.162 434.917 175.781 434.821 175.343C432.04 163.178 429.438 150.979 427.015 138.746C425.215 129.614 420.32 107.152 412.077 104.085C379.358 91.869 343.106 95.2271 325.762 130.522C321.103 140.014 319.807 153.155 332.071 156.513C332.482 156.623 332.837 156.893 333.063 157.267C337.117 163.863 344.519 171.59 346.454 178.941C347.856 184.263 349.611 189.306 351.719 194.069C352.459 195.771 351.943 196.405 350.171 195.971C345.237 194.783 340.359 194.715 335.536 195.765C329.531 197.085 309.243 197.496 311.396 208.033C311.448 208.284 311.445 208.544 311.387 208.793C311.329 209.042 311.217 209.274 311.06 209.472C307.213 214.235 307.264 218.861 311.211 223.35C311.379 223.537 311.505 223.758 311.577 223.999C311.65 224.239 311.669 224.491 311.632 224.738L310.791 230.392C310.757 230.655 310.779 230.912 310.858 231.163L314.407 242.762C314.486 243.012 314.621 243.241 314.801 243.431C314.982 243.621 315.204 243.768 315.45 243.859C323.895 246.926 327.697 244.732 335.317 242.608C347.026 239.364 357.77 233.973 367.549 226.434C367.9 226.163 368.343 226.044 368.78 226.101C369.217 226.159 369.615 226.389 369.887 226.742C372.029 229.495 374.895 230.169 378.483 228.764C384.304 226.48 389.743 223.441 394.801 219.649C395.018 219.484 395.271 219.376 395.538 219.335C395.806 219.293 396.08 219.319 396.337 219.41C396.594 219.501 396.825 219.655 397.012 219.858C397.199 220.06 397.335 220.307 397.408 220.575L397.778 221.911C397.886 222.299 397.858 222.713 397.698 223.079C397.538 223.446 397.257 223.742 396.904 223.916C386.765 228.918 377.334 235.024 368.609 242.231C361.689 247.942 356.418 254.938 352.796 263.219C352.703 263.427 352.571 263.613 352.408 263.768C352.244 263.923 352.051 264.042 351.842 264.121C351.632 264.199 351.409 264.234 351.185 264.223C350.962 264.212 350.743 264.157 350.542 264.059C342.456 260.21 337.471 258.285 335.587 258.285C327.759 258.274 320.323 260.027 313.28 263.545C313.056 263.659 312.865 263.813 312.708 264.007C308.379 269.502 304.651 273.191 301.522 275.076C301.317 275.201 301.089 275.281 300.852 275.31C300.616 275.338 300.376 275.316 300.148 275.243C299.921 275.17 299.711 275.048 299.533 274.887C299.355 274.725 299.213 274.527 299.116 274.305C296.492 268.262 293.873 262.203 291.26 256.126C290.172 253.579 289.325 250.364 288.72 246.48C287.963 241.648 284.834 229.038 280.662 226.177C279.215 225.195 277.875 225.24 276.642 226.314C276.431 226.497 276.18 226.624 275.91 226.685C275.64 226.745 275.36 226.737 275.094 226.661C274.828 226.584 274.584 226.443 274.385 226.248C274.185 226.053 274.036 225.811 273.95 225.543C269.324 211.048 253.864 187.439 235.982 197.239C235.687 197.407 235.352 197.478 235.023 197.445C200.487 194.104 183.951 231.437 190.579 261.009C196.231 286.229 202.254 311.501 205.702 337.098C205.848 338.24 206.145 341.964 206.594 348.269" stroke="#9294A0" stroke-width="2"/>
<path d="M584.925 617.229C583.546 617.4 593.252 725.957 594.245 736.237" stroke="#9294A0" stroke-width="2"/>
<path d="M532.608 736.219C524.287 711.376 516.526 686.567 509.326 661.792C508.306 658.297 507.437 658.337 506.719 661.912L491.949 734.695C491.91 734.886 491.912 735.084 491.955 735.275C491.997 735.466 492.08 735.646 492.196 735.801C492.312 735.957 492.46 736.086 492.629 736.179C492.799 736.271 492.985 736.326 493.177 736.339L493.732 736.374" stroke="#9294A0" stroke-width="2"/>
<path d="M317.099 736.373C317.39 736.43 317.632 736.419 317.822 736.339C317.973 736.284 318.102 736.179 318.185 736.042C318.267 735.904 318.3 735.743 318.276 735.585C311.245 688.171 305.161 640.638 300.024 592.984C299.183 585.155 299.721 575.406 300.344 567.798C302.363 543.126 305.845 518.632 310.791 494.314C311.273 491.915 310.561 491.458 308.654 492.943C305.66 495.273 302.458 497.232 299.049 498.82C290.318 502.915 280.83 502.555 277.819 491.778C272.84 473.982 267.49 456.472 261.771 439.247C261.65 438.882 261.412 438.569 261.094 438.361C260.776 438.152 260.397 438.06 260.021 438.099C253.057 438.807 246.563 440.926 240.541 444.456C240.34 444.573 240.117 444.646 239.886 444.672C239.656 444.697 239.423 444.674 239.202 444.603C238.981 444.532 238.776 444.415 238.601 444.26C238.427 444.105 238.285 443.915 238.186 443.702C232.836 432.165 228.788 419.989 226.04 407.174" stroke="#9294A0" stroke-width="2"/>
<path d="M214.971 449.322C220.197 449.904 225.311 449.476 230.313 448.037C230.535 447.973 230.742 447.863 230.921 447.715C231.099 447.566 231.246 447.381 231.352 447.173C231.458 446.964 231.52 446.735 231.535 446.5C231.55 446.266 231.518 446.031 231.44 445.809C227.661 434.89 225.35 423.639 224.509 412.057" stroke="#9294A0" stroke-width="2"/>
<path d="M404.473 366.756C409.531 386.916 417.342 405.923 427.907 423.776C427.935 423.823 427.973 423.865 428.016 423.897C428.06 423.93 428.108 423.953 428.158 423.964C428.208 423.976 428.258 423.975 428.305 423.964C428.351 423.952 428.394 423.929 428.428 423.896C429.236 423.056 407.182 371.194 404.944 365.882C404.72 365.357 404.462 365.334 404.171 365.814C403.969 366.145 404.07 366.459 404.473 366.756Z" stroke="#9294A0" stroke-width="2"/>
<path d="M300.462 422.559C299.789 422.011 299.138 421.491 298.51 421C296.043 419.058 295.151 419.635 295.836 422.731L298.645 435.324C299.194 437.802 300.198 438.008 301.656 435.94L305.895 429.927C306.115 429.614 306.227 429.235 306.211 428.85C306.196 428.465 306.055 428.096 305.811 427.802C304.185 425.872 302.402 424.124 300.462 422.559Z" stroke="#9294A0" stroke-width="2"/>
<path d="M545.948 352.09C542.36 317.241 538.704 282.403 534.98 247.577C533.534 234.121 531.537 220.769 528.992 207.519C525.476 189.238 509.377 165.2 488.753 167.564C473.624 169.312 456.308 172.333 436.806 176.628C436.375 176.725 435.925 176.644 435.553 176.403C435.18 176.162 434.917 175.781 434.821 175.343C432.04 163.178 429.438 150.979 427.015 138.746C425.215 129.614 420.32 107.152 412.077 104.085C379.358 91.869 343.106 95.2271 325.762 130.522C321.103 140.014 319.807 153.155 332.071 156.513C332.482 156.623 332.837 156.893 333.063 157.267C337.117 163.863 344.519 171.59 346.454 178.941C347.855 184.263 349.611 189.306 351.719 194.069C352.459 195.771 351.943 196.405 350.171 195.971C345.237 194.783 340.358 194.715 335.536 195.766C329.53 197.085 309.243 197.496 311.396 208.033C311.448 208.284 311.445 208.544 311.387 208.793C311.329 209.042 311.217 209.274 311.06 209.472C307.213 214.235 307.263 218.861 311.211 223.35C311.379 223.537 311.504 223.758 311.577 223.999C311.65 224.239 311.669 224.492 311.632 224.738L310.791 230.392C310.757 230.655 310.779 230.912 310.858 231.163L314.407 242.762C314.486 243.013 314.62 243.241 314.801 243.432C314.982 243.622 315.204 243.768 315.45 243.859C323.895 246.926 327.697 244.733 335.317 242.608C347.026 239.364 357.769 233.973 367.549 226.434C367.9 226.163 368.342 226.044 368.78 226.101C369.217 226.159 369.615 226.389 369.887 226.743C372.029 229.495 374.894 230.169 378.483 228.764C384.304 226.48 389.743 223.442 394.801 219.649C395.018 219.485 395.271 219.377 395.538 219.335C395.806 219.293 396.08 219.319 396.337 219.41C396.594 219.501 396.825 219.655 397.012 219.858C397.199 220.061 397.335 220.307 397.408 220.575L397.778 221.911C397.886 222.299 397.858 222.713 397.698 223.079C397.538 223.446 397.257 223.742 396.903 223.916C386.765 228.919 377.334 235.024 368.608 242.231C361.689 247.942 356.418 254.938 352.796 263.22C352.703 263.427 352.571 263.613 352.408 263.768C352.244 263.923 352.051 264.043 351.841 264.121C351.632 264.199 351.409 264.234 351.185 264.223C350.962 264.213 350.743 264.157 350.541 264.059C342.456 260.21 337.471 258.285 335.586 258.285C327.759 258.274 320.323 260.027 313.28 263.545C313.056 263.659 312.865 263.814 312.708 264.008C308.379 269.502 304.65 273.191 301.521 275.076C301.317 275.201 301.089 275.281 300.852 275.31C300.616 275.339 300.375 275.316 300.148 275.243C299.92 275.17 299.711 275.049 299.533 274.887C299.355 274.725 299.213 274.527 299.116 274.305C296.492 268.262 293.873 262.203 291.26 256.126C290.172 253.579 289.325 250.364 288.72 246.48C287.963 241.649 284.834 229.039 280.662 226.177C279.215 225.195 277.875 225.241 276.641 226.314C276.431 226.497 276.18 226.624 275.91 226.685C275.64 226.745 275.36 226.737 275.093 226.661C274.827 226.585 274.584 226.443 274.384 226.248C274.185 226.053 274.036 225.811 273.95 225.543C269.324 211.049 253.864 187.439 235.982 197.239C235.687 197.407 235.352 197.479 235.023 197.445C200.487 194.104 183.951 231.437 190.579 261.009C196.231 286.23 202.254 311.501 205.702 337.099C205.848 338.241 206.145 341.964 206.594 348.27C138.262 236.303 190.377 88.3738 311.463 46.2943C395.238 17.1676 487.844 45.8145 540.162 119.111C589.148 187.747 592.058 280.696 545.948 352.09Z" fill="#E9EAEB"/>
<path d="M545.949 352.09C539.669 361.719 532.827 370.914 525.426 379.675C525.249 379.887 525.125 380.14 525.064 380.411C525.002 380.682 525.005 380.964 525.072 381.234L584.926 617.229C583.547 617.4 593.253 725.957 594.245 736.237L532.609 736.22C524.287 711.376 516.527 686.567 509.327 661.792C508.306 658.297 507.437 658.337 506.719 661.912L491.949 734.695C491.911 734.886 491.912 735.084 491.955 735.275C491.998 735.466 492.08 735.646 492.196 735.802C492.313 735.957 492.46 736.086 492.63 736.179C492.799 736.272 492.986 736.326 493.177 736.339L493.733 736.374C466.537 736.534 439.341 736.642 412.145 736.699C390.68 736.751 362.233 735.945 337.185 736.631C330.49 736.825 323.794 736.739 317.099 736.374C317.391 736.431 317.632 736.419 317.822 736.339C317.974 736.285 318.102 736.18 318.185 736.042C318.268 735.905 318.3 735.743 318.277 735.586C311.245 688.172 305.161 640.638 300.025 592.985C299.183 585.155 299.722 575.406 300.344 567.799C302.363 543.127 305.845 518.632 310.791 494.314C311.273 491.915 310.561 491.458 308.654 492.943C305.66 495.273 302.458 497.232 299.049 498.82C290.318 502.915 280.83 502.555 277.819 491.778C272.84 473.982 267.49 456.472 261.771 439.247C261.65 438.882 261.412 438.57 261.094 438.361C260.776 438.152 260.398 438.06 260.021 438.099C253.057 438.808 246.563 440.926 240.541 444.456C240.34 444.573 240.117 444.647 239.887 444.672C239.656 444.697 239.423 444.674 239.202 444.603C238.981 444.532 238.776 444.416 238.601 444.261C238.427 444.106 238.285 443.915 238.186 443.702C232.836 432.166 228.788 419.99 226.04 407.174L231.608 382.827C231.671 382.558 231.669 382.276 231.601 382.008C231.534 381.739 231.404 381.491 231.222 381.285C222.014 371.005 213.805 360 206.594 348.269C206.145 341.964 205.848 338.241 205.702 337.098C202.254 311.501 196.231 286.23 190.579 261.009C183.951 231.437 200.487 194.104 235.023 197.445C235.352 197.479 235.687 197.407 235.982 197.239C253.864 187.439 269.324 211.048 273.95 225.543C274.036 225.811 274.185 226.053 274.385 226.248C274.584 226.443 274.828 226.585 275.094 226.661C275.36 226.737 275.64 226.745 275.91 226.685C276.18 226.624 276.431 226.497 276.642 226.314C277.875 225.241 279.215 225.195 280.662 226.177C284.834 229.038 287.963 241.649 288.72 246.48C289.326 250.364 290.172 253.579 291.26 256.126C293.873 262.203 296.492 268.262 299.116 274.305C299.213 274.527 299.355 274.725 299.533 274.887C299.711 275.049 299.921 275.17 300.148 275.243C300.376 275.316 300.616 275.338 300.853 275.31C301.089 275.281 301.317 275.201 301.522 275.076C304.651 273.191 308.38 269.502 312.708 264.008C312.865 263.813 313.056 263.659 313.28 263.545C320.323 260.027 327.759 258.274 335.587 258.285C337.471 258.285 342.456 260.21 350.542 264.059C350.743 264.157 350.962 264.213 351.186 264.223C351.409 264.234 351.632 264.199 351.842 264.121C352.052 264.043 352.244 263.923 352.408 263.768C352.572 263.613 352.704 263.427 352.796 263.219C356.418 254.938 361.689 247.942 368.609 242.231C377.334 235.024 386.766 228.919 396.904 223.916C397.257 223.742 397.538 223.446 397.698 223.079C397.858 222.713 397.887 222.299 397.779 221.911L397.408 220.575C397.335 220.307 397.199 220.061 397.012 219.858C396.826 219.655 396.594 219.501 396.337 219.41C396.08 219.319 395.806 219.293 395.539 219.335C395.271 219.376 395.018 219.484 394.801 219.649C389.743 223.442 384.304 226.48 378.483 228.764C374.895 230.169 372.029 229.495 369.887 226.743C369.615 226.389 369.217 226.159 368.78 226.101C368.343 226.044 367.901 226.163 367.549 226.434C357.77 233.973 347.026 239.364 335.318 242.608C327.697 244.733 323.895 246.926 315.451 243.859C315.204 243.768 314.982 243.622 314.801 243.431C314.621 243.241 314.486 243.012 314.408 242.762L310.858 231.163C310.78 230.912 310.757 230.655 310.791 230.392L311.632 224.738C311.669 224.492 311.65 224.239 311.577 223.999C311.505 223.758 311.38 223.537 311.211 223.35C307.264 218.861 307.213 214.235 311.06 209.472C311.217 209.274 311.329 209.042 311.387 208.793C311.445 208.544 311.449 208.284 311.396 208.033C309.243 197.496 329.531 197.085 335.536 195.766C340.359 194.715 345.237 194.783 350.172 195.971C351.944 196.405 352.459 195.771 351.719 194.069C349.611 189.306 347.856 184.263 346.454 178.941C344.519 171.59 337.118 163.863 333.063 157.267C332.837 156.893 332.482 156.623 332.071 156.513C319.807 153.155 321.103 140.014 325.763 130.522C343.106 95.2271 379.358 91.869 412.077 104.085C420.32 107.152 425.216 129.614 427.016 138.746C429.438 150.979 432.04 163.178 434.821 175.343C434.918 175.781 435.181 176.162 435.553 176.403C435.925 176.644 436.376 176.725 436.806 176.628C456.309 172.333 473.624 169.312 488.753 167.564C509.377 165.2 525.476 189.238 528.992 207.519C531.538 220.769 533.534 234.121 534.981 247.577C538.704 282.403 542.36 317.241 545.949 352.09ZM404.474 366.756C409.532 386.916 417.343 405.923 427.907 423.776C427.936 423.823 427.973 423.865 428.017 423.898C428.06 423.93 428.108 423.953 428.158 423.964C428.208 423.976 428.258 423.976 428.305 423.964C428.352 423.952 428.394 423.929 428.429 423.896C429.236 423.056 407.182 371.194 404.945 365.882C404.721 365.357 404.463 365.334 404.171 365.814C403.969 366.145 404.07 366.459 404.474 366.756ZM300.462 422.56C299.789 422.011 299.139 421.492 298.511 421C296.043 419.059 295.152 419.635 295.836 422.731L298.645 435.324C299.195 437.803 300.198 438.008 301.656 435.941L305.895 429.927C306.116 429.614 306.227 429.235 306.212 428.85C306.196 428.465 306.055 428.096 305.811 427.802C304.185 425.872 302.402 424.124 300.462 422.56Z" fill="#0F1629"/>
<path d="M404.474 366.756C404.07 366.459 403.969 366.145 404.171 365.814C404.463 365.334 404.721 365.357 404.945 365.882C407.182 371.194 429.236 423.056 428.429 423.896C428.394 423.929 428.352 423.952 428.305 423.964C428.258 423.975 428.208 423.976 428.158 423.964C428.109 423.953 428.06 423.93 428.017 423.897C427.973 423.865 427.936 423.823 427.907 423.776C417.343 405.923 409.532 386.916 404.474 366.756Z" fill="#E9EAEB"/>
<path d="M226.04 407.173C228.788 419.989 232.836 432.165 238.186 443.702C238.285 443.915 238.426 444.105 238.601 444.26C238.776 444.415 238.98 444.532 239.202 444.603C239.423 444.673 239.656 444.697 239.886 444.671C240.117 444.646 240.34 444.573 240.541 444.455C246.563 440.926 253.057 438.807 260.021 438.099C260.397 438.06 260.775 438.152 261.093 438.36C261.411 438.569 261.65 438.882 261.77 439.247C267.49 456.472 272.839 473.982 277.819 491.778C280.83 502.555 290.318 502.914 299.048 498.819C302.458 497.232 305.66 495.273 308.654 492.943C310.56 491.458 311.273 491.915 310.79 494.313C305.845 518.631 302.362 543.126 300.344 567.798C299.721 575.405 299.183 585.154 300.024 592.984C305.161 640.638 311.245 688.171 318.276 735.585C318.3 735.742 318.267 735.904 318.184 736.042C318.101 736.179 317.973 736.284 317.822 736.339C317.631 736.419 317.39 736.43 317.099 736.373L144.116 736.27C143.859 736.271 143.605 736.211 143.374 736.096C143.143 735.981 142.941 735.814 142.784 735.607C142.626 735.4 142.517 735.16 142.465 734.903C142.413 734.647 142.42 734.382 142.484 734.128L214.971 449.321C220.197 449.904 225.311 449.476 230.313 448.036C230.535 447.973 230.742 447.863 230.921 447.714C231.099 447.566 231.246 447.381 231.352 447.172C231.457 446.963 231.52 446.734 231.535 446.5C231.55 446.265 231.518 446.03 231.44 445.809C227.661 434.889 225.35 423.638 224.509 412.056C224.644 410.457 225.154 408.83 226.04 407.173Z" fill="#E9EAEB"/>
<path d="M224.51 412.057C225.351 423.639 227.661 434.89 231.44 445.81C231.518 446.031 231.55 446.266 231.535 446.501C231.52 446.735 231.458 446.964 231.352 447.173C231.246 447.382 231.1 447.566 230.921 447.715C230.742 447.864 230.535 447.973 230.313 448.037C225.311 449.476 220.197 449.904 214.971 449.322L224.51 412.057Z" fill="#3B3E55"/>
<path d="M300.462 422.559C302.402 424.124 304.185 425.872 305.811 427.802C306.055 428.096 306.196 428.465 306.211 428.849C306.227 429.234 306.115 429.613 305.895 429.926L301.656 435.94C300.198 438.008 299.194 437.802 298.645 435.323L295.836 422.73C295.151 419.635 296.043 419.058 298.51 421C299.138 421.491 299.789 422.011 300.462 422.559Z" fill="#E9EAEB"/>
<path d="M584.926 617.229L614.634 734.078C614.698 734.332 614.704 734.597 614.652 734.853C614.6 735.109 614.491 735.35 614.334 735.557C614.176 735.764 613.974 735.931 613.744 736.046C613.513 736.161 613.259 736.22 613.002 736.22L594.245 736.237C593.253 725.957 583.546 617.4 584.926 617.229Z" fill="#E9EAEB"/>
<path d="M532.609 736.219L493.733 736.373L493.177 736.339C492.986 736.326 492.799 736.271 492.63 736.178C492.46 736.085 492.312 735.957 492.196 735.801C492.08 735.645 491.998 735.466 491.955 735.275C491.912 735.084 491.911 734.886 491.949 734.694L506.719 661.912C507.437 658.336 508.306 658.297 509.327 661.792C516.527 686.567 524.287 711.376 532.609 736.219Z" fill="#E9EAEB"/>
</svg>
