<svg width="474" height="321" viewBox="0 0 474 321" fill="none" xmlns="http://www.w3.org/2000/svg">
<path d="M220.698 112.247C220.18 112.125 219.65 112.058 219.108 112.045C213.555 111.932 208.514 111.339 202.86 109.864C192.934 107.275 178.293 103.284 158.94 97.8914C154.965 96.7818 150.889 95.7226 148.561 92.3685C146.068 88.7874 146.068 83.6995 148.706 80.1815C151.52 76.4302 157.489 76.1402 161.735 76.3672C161.792 76.3696 161.849 76.3585 161.901 76.3346C161.952 76.3108 161.998 76.2751 162.032 76.2305C162.067 76.1859 162.09 76.1337 162.1 76.0785C162.11 76.0232 162.106 75.9665 162.088 75.9133C161.943 75.4782 161.703 75.1567 161.237 74.9991C154.801 72.8513 148.502 70.3546 142.34 67.5091C136.73 64.9179 130.339 61.0468 131.897 53.8216C133.386 46.9054 139.753 42.7443 146.75 45.1464C150.157 46.3107 153.581 47.4266 157.022 48.4942C157.375 48.6014 157.747 48.5572 157.886 48.2168C157.921 48.1273 157.926 48.0293 157.901 47.9373C157.876 47.8454 157.822 47.7643 157.747 47.7061C157.356 47.4035 156.877 46.9117 156.492 46.6847C150.456 43.1289 144.533 39.3965 138.724 35.4876C135.803 33.5205 133.557 30.7654 133.361 27.4554C132.724 16.8636 142.737 12.2864 151.482 16.4033C158.38 19.6523 165.27 22.9455 172.152 26.2828C172.199 26.3061 172.252 26.318 172.304 26.3177C172.357 26.3174 172.409 26.3048 172.456 26.281C172.503 26.2571 172.544 26.2227 172.576 26.1803C172.607 26.1379 172.629 26.0889 172.638 26.0369L172.701 25.6775C172.72 25.5728 172.71 25.465 172.672 25.366C172.634 25.267 172.57 25.1807 172.486 25.1164C169.735 22.956 167.479 20.9532 165.716 19.108C158.214 11.2776 166.568 -1.31284 176.689 1.19012C178.354 1.59992 181.414 3.61742 183.326 4.92879C193.03 11.5991 202.627 18.3452 212.117 25.1668C212.179 25.2134 212.255 25.2398 212.333 25.2425C212.411 25.2453 212.488 25.2243 212.555 25.1822C212.621 25.1402 212.674 25.079 212.706 25.0066C212.738 24.9342 212.748 24.8539 212.735 24.776C211.385 17.1284 211.069 10.6282 220.445 8.47833C224.723 7.50111 228.931 9.95994 231.783 12.816C244.926 25.9675 257.533 41.8806 260.012 60.9522C260.223 62.5788 260.46 64.2012 260.725 65.8195C260.762 66.0387 260.879 66.2364 261.053 66.3743L266.972 71.0713C267.047 71.1322 267.136 71.1758 267.23 71.1992C267.325 71.2225 267.423 71.225 267.519 71.2064C267.614 71.1877 267.704 71.1485 267.783 71.0914C267.862 71.0343 267.927 70.9608 267.975 70.8758C270.581 66.2104 275.691 61.6773 281.471 62.9319C284.216 63.5309 287.03 65.5358 289.238 67.4082C289.314 67.4731 289.405 67.5196 289.502 67.5442C289.599 67.5688 289.7 67.5709 289.798 67.5502C289.897 67.5295 289.989 67.4866 290.067 67.4249C290.146 67.3631 290.21 67.2841 290.254 67.1939C297.371 52.2896 317.77 60.12 315.246 75.68C315.231 75.7686 315.252 75.8593 315.304 75.9325C315.356 76.0057 315.435 76.0555 315.523 76.0709C318.88 76.6383 322.268 77.1742 325.101 79.5511C329.228 83.0123 329.966 88.6046 328.855 93.6672C328.831 93.7792 328.832 93.8952 328.858 94.0068C328.884 94.1184 328.934 94.2229 329.005 94.3128C329.077 94.4026 329.167 94.4755 329.27 94.5264C329.372 94.5772 329.485 94.6046 329.6 94.6067C333.777 94.6508 337.998 96.5926 340.332 100.06C343.803 105.23 341.714 111.894 339.563 117.222C334.444 129.907 329.796 140.976 325.619 150.428C319.006 165.402 309.662 176.933 293.888 182.765C293.7 182.834 293.54 182.965 293.434 183.137C286.708 194.132 280.922 205.639 275.256 217.214C274.562 218.635 273.508 219.662 272.095 220.297C271.912 220.378 271.705 220.387 271.514 220.322C269.167 219.49 268.545 217.886 269.647 215.512C271.674 211.145 276.101 202.375 282.928 189.202C285.679 183.894 287.269 180.205 292.815 177.198C302.305 172.053 310.135 166.625 315.87 157.25C317.191 155.098 318.991 151.305 321.271 145.87C325.751 135.182 330.159 124.466 334.496 113.722C336.338 109.164 338.604 103.395 332.124 100.968C328.698 99.6882 326.212 101.201 324.23 104.057C321.013 108.685 318.748 114.422 316.331 119.516C315.359 121.559 312.097 120.279 311.384 118.628C310.779 117.222 311.693 115.381 312.318 114.151C317.711 103.597 321.225 96.2333 322.861 92.0596C324.535 87.7808 323.459 84.8134 319.631 83.1573C313.845 80.6544 310.413 86.2151 308.299 90.4077C306.692 93.5937 303.125 100.31 297.598 110.558C296.759 112.108 293.617 111.566 292.803 110.293C291.976 109 292.803 107.519 293.446 106.277C297.304 98.7909 302.566 88.3209 309.233 74.8667C311.246 70.8128 308.368 67.0489 304.463 65.8321C299.844 64.3946 296.494 68.1963 294.544 71.79C290.965 78.4057 287.4 85.0319 283.85 91.6687C283.326 92.6522 282.689 93.8312 281.755 94.3986C278.171 96.5485 277.111 91.5552 278.322 89.3044C279.984 86.2235 281.601 83.1237 283.174 80.005C284.846 76.695 286.272 74.5578 284.588 71.6135C281.029 65.3907 275.294 70.2075 273.048 74.293C265.766 87.5328 258.494 100.779 251.229 114.031C250.624 115.128 248.794 115.084 247.658 114.555C244.112 112.903 240.642 111.112 237.247 109.183C233.436 107.008 227.941 108.237 227.455 113.218C226.767 120.368 226.187 128.696 229.67 135.543C231.483 139.107 233.727 143.054 236.402 147.383C238.711 151.128 240.863 155.977 240.882 160.257C240.907 164.645 239.5 166.865 237.052 171.745C233.531 178.772 229.562 186.331 225.146 194.422C223.531 197.386 219.757 196.661 219.272 193.452C219.239 193.247 219.272 193.037 219.366 192.853C224.128 183.58 228.99 174.365 233.954 165.207C236.282 160.907 234.736 157.464 232.257 153.095C227.392 144.508 222.515 136.552 221.171 127.353C220.603 123.451 220.912 119.056 221.228 114.971C221.291 114.172 221.24 113.39 221.076 112.625C221.056 112.533 221.009 112.448 220.942 112.381C220.875 112.314 220.79 112.268 220.698 112.247ZM197.504 37.9275C198.993 39.138 199.933 42.8073 196.898 43.2235C195.771 43.379 194.597 43.1667 193.377 42.5867C179.114 35.7482 164.841 28.9244 150.561 22.1154C147.267 20.5392 142.693 18.9756 140.554 22.0838C137.178 26.9889 140.352 29.9017 144.586 32.5055C158.488 41.0462 172.39 49.5849 186.292 58.1214C189.92 60.347 187.812 64.5774 183.812 63.2787C171.601 59.3025 159.388 55.3285 147.173 51.3565C144.819 50.5873 140.308 50.0704 138.951 51.9996C135.532 56.8857 139.5 59.8426 143.595 61.5323C156.214 66.7315 168.833 71.9308 181.452 77.1301C182.622 77.6134 183.762 78.164 184.872 78.7819C187.478 80.2383 183.926 83.1195 182.367 83.523C181.572 83.729 180.218 83.7458 178.304 83.5735C172.259 83.0355 166.213 82.5374 160.164 82.0792C158.334 81.9342 153.791 82.3567 153.072 84.5696C151.034 90.8049 158.984 91.8704 162.757 92.9359C175.322 96.4792 187.917 99.9068 200.545 103.219C210.098 105.728 218.275 107.771 227.127 103.761C229.171 102.834 233.285 100.249 235.392 101.441C239.372 103.685 243.374 105.884 247.399 108.036C247.447 108.062 247.5 108.078 247.554 108.084C247.609 108.09 247.664 108.085 247.716 108.069C247.768 108.053 247.817 108.027 247.859 107.992C247.901 107.957 247.936 107.914 247.961 107.865C252.79 98.8749 257.671 89.9265 262.605 81.0201C263.236 79.8726 264.322 78.6054 264.605 76.9724C264.623 76.8779 264.614 76.7807 264.579 76.6916C264.545 76.6025 264.486 76.5251 264.41 76.4681C262.429 74.9613 256.151 71.2226 255.678 68.9907C254.74 64.5942 253.759 60.2083 252.737 55.8328C249.273 41.0042 240.535 30.8537 230.244 19.5368C228.004 17.0716 224.584 12.3746 220.811 14.0643C216.994 15.7728 218.035 21.4092 219.587 24.3724C222.826 30.5721 226.115 36.7443 229.455 42.8893C230.32 44.4781 230.395 46.0921 229.36 47.7565C220.641 61.7845 228.206 74.1038 239.26 83.3654C241.014 84.8407 241.967 86.7573 240.339 88.6424C239.077 90.1051 237.803 89.3612 236.56 88.4218C224.199 79.0593 214.041 62.9887 222.647 47.662C224.206 44.8879 222.256 40.7079 220.496 38.5076C219.705 37.5282 218.142 36.2253 215.808 34.5986C203.1 25.7763 190.427 16.9014 177.786 7.97395C177.143 7.52001 175.982 6.95049 174.304 6.26538C174.115 6.18776 173.904 6.17666 173.704 6.23387C170.819 7.05768 169.184 8.95328 168.802 11.9207C168.467 14.4993 170.013 15.4261 171.792 16.8951C180.331 23.9395 188.902 30.9503 197.504 37.9275Z" fill="white"/>
<path d="M27.948 287.675C44.5358 298.273 37.2041 308.708 24.0551 316.267C20.8035 318.137 17.3123 319.629 13.5812 320.743C13.2666 320.836 12.9304 320.827 12.6217 320.716C12.313 320.604 12.0479 320.398 11.865 320.125L10.8744 318.663C10.8143 318.573 10.7289 318.503 10.629 318.461C10.5291 318.42 10.4191 318.409 10.3129 318.429L7.57458 318.997C7.45948 319.022 7.3396 319.019 7.22529 318.987C7.11098 318.955 7.00565 318.896 6.91838 318.814C5.89624 317.864 4.68271 317.318 3.27779 317.175C2.9472 317.14 2.64153 316.984 2.42086 316.736C2.20018 316.489 2.08049 316.169 2.08529 315.838C2.26195 302.787 2.24723 289.747 2.04112 276.718C2.0327 276.079 1.76771 274.687 1.24612 272.544C1.22299 272.444 1.23339 272.34 1.27568 272.247C1.31796 272.155 1.3897 272.079 1.47957 272.033L2.8929 271.289C2.99412 271.238 3.08304 271.165 3.15376 271.077C3.22448 270.989 3.27537 270.887 3.30302 270.779L3.46076 270.186C3.49025 270.076 3.48422 269.959 3.44351 269.851C3.40279 269.744 3.32941 269.652 3.23361 269.587L1.37231 268.345C1.2716 268.278 1.18708 268.19 1.12487 268.086C1.06266 267.982 1.02433 267.866 1.01267 267.746L0.463734 262.589C0.453165 262.494 0.475622 262.398 0.527324 262.318C0.579027 262.237 0.656833 262.177 0.74767 262.147C9.34124 259.285 23.3105 257.722 30.6737 263.295C39.5197 269.991 34.4847 280.374 27.8344 285.948C27.7055 286.055 27.6038 286.192 27.5378 286.347C27.4717 286.501 27.443 286.669 27.4541 286.838C27.4651 287.006 27.5156 287.169 27.6014 287.315C27.6872 287.46 27.8059 287.584 27.948 287.675ZM23.5944 272.071C20.1705 269.217 16.4689 268.891 12.4897 271.094C11.6947 271.529 11.3918 272.21 11.4044 273.055C11.4423 276.997 11.5433 280.95 11.7073 284.914C11.7112 285.016 11.7387 285.116 11.7875 285.205C11.8364 285.295 11.9054 285.372 11.9891 285.431C12.0729 285.489 12.169 285.528 12.2701 285.543C12.3711 285.558 12.4744 285.55 12.5717 285.519C16.1555 284.371 19.4175 282.604 22.3578 280.217C24.9636 278.092 26.5094 274.498 23.5944 272.071ZM24.5472 303.796C27.3297 299.843 26.4337 295.594 21.3483 294.636C18.244 294.047 15.3689 294.198 12.7231 295.089C12.4957 295.167 12.2978 295.313 12.1566 295.506C12.0155 295.699 11.9378 295.93 11.9344 296.168L11.7073 309.912C11.7052 310.059 11.7377 310.204 11.802 310.336C11.8664 310.468 11.9609 310.583 12.0777 310.672C12.1946 310.76 12.3306 310.82 12.4745 310.846C12.6185 310.871 12.7663 310.862 12.9061 310.82C16.6287 309.685 22.2505 307.056 24.5472 303.796Z" fill="#FE570B"/>
<path d="M286.67 277.96C280.209 284.706 293.592 289.125 297.598 290.922C308.04 295.606 305.34 309.25 297.289 314.571C291.362 318.492 284.809 320.22 277.628 319.753C277.532 319.748 277.438 319.716 277.358 319.662C277.277 319.608 277.213 319.533 277.17 319.445C277.128 319.358 277.11 319.26 277.117 319.162C277.124 319.065 277.157 318.971 277.212 318.89C277.868 317.944 280.909 316.715 278.739 315.599C277.103 314.754 276.453 313.335 276.789 311.343C276.81 311.207 276.878 311.081 276.981 310.987C277.084 310.894 277.217 310.837 277.357 310.826C280.67 310.555 293.503 308.355 293.049 303.412C292.361 295.985 275.161 294.762 272.985 286.036C269.325 271.384 284.689 263.131 296.279 260.256C297.112 260.05 297.96 259.947 298.822 259.947C298.933 259.945 299.043 259.97 299.142 260.021C299.241 260.072 299.326 260.146 299.39 260.237L301.232 262.797C301.291 262.879 301.33 262.974 301.347 263.075C301.363 263.175 301.356 263.279 301.327 263.377C300.765 265.149 298.917 264.896 298.544 266.586C298.527 266.662 298.538 266.742 298.576 266.81C298.615 266.879 298.678 266.932 298.753 266.958L303.163 268.458C303.316 268.51 303.454 268.596 303.569 268.709C303.684 268.821 303.772 268.959 303.827 269.11C303.881 269.261 303.901 269.423 303.884 269.583C303.868 269.743 303.815 269.898 303.731 270.035C303.281 270.762 302.66 271.197 301.87 271.34C297.081 272.21 290.121 274.353 286.67 277.96Z" fill="#FE570B"/>
<path d="M182.841 274.75C180.594 274.24 172.714 276.787 173.118 274.297C173.15 274.084 173.255 273.891 173.414 273.748L176.455 271.024C176.494 270.989 176.525 270.945 176.544 270.896C176.563 270.846 176.571 270.793 176.566 270.741C176.561 270.688 176.544 270.637 176.516 270.592C176.488 270.548 176.45 270.51 176.405 270.482L173.509 268.704C173.422 268.651 173.355 268.571 173.315 268.478C173.276 268.384 173.266 268.28 173.288 268.181C173.654 266.554 174.228 263.761 176.209 263.56C181.147 263.055 185.768 262.757 190.071 262.664C193.718 262.589 197.8 262.122 201.7 262.173C201.806 262.174 201.91 262.205 202 262.262C202.09 262.318 202.163 262.399 202.211 262.494C202.922 263.927 203.313 265.453 203.384 267.071C203.388 267.185 203.363 267.298 203.311 267.4C203.259 267.501 203.182 267.588 203.088 267.651L200.924 269.108C200.746 269.225 200.619 269.406 200.57 269.612C200.324 270.671 202.211 270.924 202.949 270.892C203.157 270.888 203.362 270.957 203.529 271.087C204.089 271.525 204.198 272.075 203.858 272.739C203.761 272.93 203.591 273.076 203.384 273.149C200.204 274.259 197.119 273.906 194.04 274.429C193.793 274.471 193.568 274.599 193.406 274.79C193.245 274.982 193.156 275.225 193.157 275.476C193.131 288.9 193.024 302.226 192.835 315.454C192.818 316.509 192.706 317.473 192.5 318.347C192.473 318.46 192.419 318.564 192.342 318.651C192.266 318.737 192.169 318.804 192.061 318.844C191.952 318.885 191.835 318.898 191.721 318.883C191.606 318.868 191.497 318.824 191.403 318.757C189.947 317.723 188.746 316.443 187.8 314.918C187.718 314.787 187.604 314.681 187.468 314.609C187.332 314.537 187.179 314.502 187.026 314.507C186.873 314.513 186.724 314.559 186.595 314.641C186.466 314.723 186.361 314.838 186.292 314.974C185.856 315.819 184.916 318.814 183.453 317.711C183.372 317.65 183.307 317.572 183.262 317.482C183.217 317.392 183.194 317.294 183.194 317.194C183.181 303.267 183.743 289.018 183.162 275.135C183.159 275.044 183.125 274.957 183.067 274.888C183.009 274.818 182.929 274.77 182.841 274.75Z" fill="#FE570B"/>
<path d="M68.4929 316.569C67.0796 317.37 65.6726 320.951 63.8176 318.095C62.808 316.536 60.4231 312.711 56.6626 306.621C56.6122 306.536 56.5414 306.465 56.4565 306.414C56.3717 306.363 56.2755 306.335 56.1767 306.331C54.3344 306.242 51.4131 306.595 51.2869 308.953C51.1312 311.875 51.0955 314.737 51.1796 317.54C51.1819 317.646 51.1538 317.75 51.0987 317.841C51.0437 317.931 50.964 318.003 50.8693 318.049C50.7746 318.095 50.6689 318.113 50.565 318.1C50.4611 318.087 50.3634 318.043 50.2836 317.975L48.3782 316.399C48.2121 316.261 48 316.192 47.7853 316.205C47.5707 316.217 47.3696 316.312 47.2235 316.469L45.3433 318.473C45.233 318.592 45.0897 318.674 44.932 318.71C44.7742 318.745 44.6092 318.732 44.4583 318.672C44.3074 318.613 44.1776 318.509 44.0856 318.374C43.9937 318.24 43.9438 318.081 43.9426 317.919C43.8963 306.364 43.8185 294.974 43.7091 283.747C43.6965 282.543 43.4126 281.705 42.3526 281.175C42.2563 281.127 42.1737 281.055 42.1126 280.967C42.0515 280.878 42.0139 280.776 42.0032 280.669C41.9924 280.562 42.009 280.454 42.0514 280.355C42.0937 280.256 42.1604 280.169 42.2453 280.103L44.9584 277.966C45.042 277.899 45.1077 277.813 45.1496 277.715C45.1914 277.616 45.2081 277.509 45.1981 277.403C45.188 277.296 45.1517 277.194 45.0922 277.105C45.0327 277.016 44.9521 276.944 44.8575 276.894L41.7595 275.248C41.6268 275.177 41.5174 275.068 41.4447 274.935C41.372 274.803 41.3389 274.653 41.3496 274.503C41.3603 274.353 41.4142 274.209 41.5049 274.09C41.5955 273.971 41.719 273.88 41.8604 273.83C49.9177 270.93 62.8017 269.019 70.3858 274.019C77.6228 278.785 75.5217 289.194 71.1429 295.253C69.3679 297.716 67.597 299.795 65.8303 301.489C65.7601 301.557 65.7074 301.64 65.6766 301.732C65.6459 301.825 65.638 301.923 65.6536 302.018C65.8051 302.909 66.1142 303.828 66.5811 304.773C68.495 308.64 70.411 312.524 72.3291 316.424C72.3768 316.523 72.3951 316.632 72.3818 316.741C72.3686 316.849 72.3243 316.951 72.2544 317.035C72.1845 317.119 72.0918 317.181 71.9876 317.214C71.8833 317.246 71.7719 317.248 71.6666 317.219L69.086 316.5C68.9862 316.472 68.8824 316.464 68.7806 316.476C68.6788 316.488 68.581 316.519 68.4929 316.569ZM64.5116 283.18C62.7765 281.011 58.1516 281.15 55.7288 281.471C53.9621 281.704 52.0251 281.377 51.9935 283.968C51.9346 288.352 51.9241 292.595 51.962 296.697C51.9626 296.845 52.0006 296.99 52.0725 297.119C52.1444 297.249 52.2478 297.358 52.3734 297.437C52.499 297.516 52.6427 297.562 52.7913 297.572C52.9399 297.581 53.0886 297.554 53.2239 297.491C56.8266 295.808 68.7327 288.451 64.5116 283.18Z" fill="#FE570B"/>
<path d="M110.174 318.02C108.464 316.185 106.59 316.374 104.741 317.843C104.651 317.913 104.544 317.957 104.43 317.969C104.317 317.982 104.202 317.962 104.1 317.912C103.998 317.863 103.912 317.786 103.852 317.69C103.793 317.594 103.762 317.483 103.763 317.37C103.776 315.17 104.577 312.692 104.912 311.04C106.825 301.512 108.815 291.998 110.88 282.499C111.494 279.666 111.993 276.787 112.376 273.862C112.406 273.626 112.518 273.409 112.693 273.25C112.867 273.09 113.093 272.999 113.328 272.991C115.188 272.924 116.895 272.357 118.452 271.289C118.617 271.176 118.82 271.133 119.017 271.168C119.214 271.204 119.39 271.315 119.505 271.478L122.238 275.305C122.285 275.371 122.351 275.422 122.427 275.45C122.504 275.478 122.587 275.483 122.666 275.464C122.745 275.446 122.817 275.404 122.872 275.344C122.927 275.284 122.963 275.209 122.976 275.129C123.136 274.04 123.59 273.118 124.339 272.361C124.42 272.279 124.517 272.214 124.623 272.17C124.729 272.125 124.843 272.102 124.957 272.102C127.001 272.084 129.708 271.541 130.118 273.666C132.082 283.98 134.011 294.303 135.904 304.635C136.27 306.614 136.308 309.502 137.418 312.017C137.713 312.682 137.826 314.033 137.759 316.071C137.755 316.169 137.728 316.265 137.68 316.35C137.631 316.435 137.563 316.509 137.481 316.563C135.481 317.912 132.244 316.677 130.061 316.21C129.879 316.17 129.711 316.081 129.575 315.952C129.439 315.823 129.341 315.66 129.292 315.479L127.38 308.291C127.33 308.099 127.215 307.93 127.053 307.813C126.892 307.697 126.695 307.641 126.496 307.655L114.231 308.468C114.124 308.475 114.022 308.516 113.939 308.585C113.857 308.654 113.798 308.748 113.77 308.853L111.537 317.673C111.501 317.812 111.428 317.939 111.327 318.041C111.225 318.142 111.097 318.215 110.958 318.25C110.819 318.285 110.672 318.283 110.534 318.242C110.396 318.202 110.272 318.125 110.174 318.02ZM122.25 283.337C121.619 282.98 120.938 282.871 120.206 283.01C120.01 283.046 119.836 283.149 119.714 283.3C119.31 283.787 119.047 284.35 118.925 284.989C118.008 289.756 116.99 294.438 115.871 299.036C115.839 299.169 115.839 299.308 115.872 299.441C115.904 299.574 115.968 299.697 116.058 299.799C116.147 299.902 116.261 299.982 116.387 300.031C116.514 300.08 116.651 300.098 116.786 300.083L125.638 299.124C125.662 299.123 125.685 299.115 125.705 299.104C125.726 299.092 125.744 299.075 125.758 299.055C125.771 299.036 125.781 299.013 125.785 298.989C125.79 298.965 125.789 298.94 125.783 298.916L122.32 283.438C122.316 283.416 122.307 283.396 122.295 283.379C122.283 283.361 122.268 283.347 122.25 283.337Z" fill="#FE570B"/>
<path d="M209.921 318.763C208.867 316.872 208.678 314.779 208.823 312.408C209.58 299.82 209.78 287.177 209.423 274.479C209.42 274.401 209.438 274.324 209.475 274.255C209.512 274.187 209.568 274.129 209.635 274.09C209.702 274.05 209.778 274.028 209.857 274.028C209.935 274.028 210.011 274.049 210.079 274.088L212.123 275.267C212.218 275.322 212.329 275.341 212.436 275.322C212.544 275.302 212.641 275.245 212.71 275.16C213.871 273.748 219.089 271.264 219.019 274.99C218.906 280.635 218.807 286.303 218.723 291.994C218.722 292.091 218.741 292.188 218.778 292.278C218.816 292.368 218.871 292.45 218.94 292.518C219.01 292.585 219.093 292.638 219.183 292.673C219.274 292.707 219.371 292.723 219.467 292.719L231.405 292.24C231.503 292.236 231.596 292.195 231.665 292.125C231.733 292.054 231.771 291.96 231.771 291.861V274.284C231.771 274.162 231.806 274.042 231.872 273.939C231.938 273.836 232.032 273.755 232.143 273.704C234.49 272.632 236.926 271.861 239.45 271.39C239.551 271.371 239.656 271.378 239.755 271.413C239.853 271.447 239.942 271.507 240.011 271.585C240.495 272.136 240.739 272.783 240.743 273.527C240.819 288.596 240.754 303.683 240.547 318.789C240.546 318.945 240.486 319.095 240.38 319.209C240.273 319.322 240.128 319.391 239.973 319.4C239.368 319.438 238.371 317.351 237.424 316.891C237.344 316.852 237.254 316.837 237.165 316.85C237.077 316.862 236.993 316.901 236.926 316.96C235.878 317.872 234.671 318.478 233.304 318.776C233.092 318.822 232.871 318.82 232.66 318.77C232.448 318.72 232.25 318.623 232.081 318.486C231.912 318.349 231.776 318.176 231.683 317.98C231.59 317.783 231.543 317.569 231.544 317.351L231.645 301.829C231.645 301.74 231.609 301.655 231.547 301.593C231.484 301.53 231.399 301.495 231.31 301.495C227.52 301.516 223.77 301.684 220.06 301.999C219.131 302.075 218.666 302.527 218.666 303.355C218.653 308.43 219 313.713 218.388 318.745C218.378 318.827 218.346 318.906 218.297 318.973C218.248 319.041 218.183 319.095 218.108 319.131C218.033 319.166 217.949 319.183 217.866 319.178C217.783 319.173 217.702 319.148 217.631 319.104C215.745 317.919 213.183 316.368 211.429 318.839C211.343 318.963 211.226 319.063 211.091 319.13C210.955 319.196 210.805 319.227 210.654 319.219C210.503 319.212 210.357 319.166 210.228 319.086C210.1 319.006 209.994 318.895 209.921 318.763Z" fill="#FE570B"/>
<path d="M328.71 316.74C328.529 316.707 328.365 316.612 328.246 316.47C328.127 316.329 328.062 316.15 328.06 315.964C327.968 303.72 327.955 291.407 328.022 279.025C328.035 276.837 327.821 275.255 330.199 274.347C330.29 274.311 330.388 274.296 330.486 274.303C330.584 274.31 330.68 274.337 330.767 274.385L333.234 275.753C333.497 275.897 333.803 275.944 334.097 275.885C334.392 275.826 334.656 275.666 334.843 275.431L337.619 271.964C337.672 271.898 337.742 271.848 337.822 271.819C337.901 271.791 337.987 271.785 338.069 271.803C338.152 271.821 338.228 271.861 338.289 271.919C338.35 271.978 338.393 272.052 338.414 272.134C339.348 275.728 338.288 281.597 338.25 285.33C338.158 294.53 337.888 302.785 337.443 310.094C337.291 312.66 344.875 312.232 346.446 312.15C348.598 312.043 351.582 318.934 346.244 319.501C343.228 319.82 339.876 319.984 336.187 319.993C333.859 319.999 332.035 320.352 331.909 317.603C331.906 317.52 331.874 317.439 331.819 317.376C331.764 317.313 331.689 317.271 331.606 317.257L328.71 316.74Z" fill="#FE570B"/>
<path d="M81.3393 279.788C81.4077 279.728 81.4609 279.653 81.4945 279.568C81.5282 279.484 81.5412 279.392 81.5326 279.302C81.5239 279.211 81.4939 279.124 81.4449 279.048C81.396 278.971 81.3295 278.907 81.2509 278.861L79.295 277.739C79.2276 277.701 79.1686 277.649 79.1219 277.587C79.0751 277.524 79.0417 277.451 79.0237 277.373C78.7082 275.929 78.7082 273.603 80.7651 273.49C85.2007 273.244 90.0906 273.508 94.4441 272.72C95.9269 272.449 98.3687 271.749 99.7568 272.323C99.8424 272.358 99.9184 272.414 99.9778 272.487C100.037 272.56 100.078 272.646 100.097 272.739C100.552 275.017 99.721 276.579 97.6052 277.424C97.407 277.505 97.2486 277.658 97.1636 277.852C96.5389 279.328 98.9491 279.221 99.8009 279.763C99.9129 279.836 100 279.942 100.052 280.066C100.103 280.189 100.116 280.326 100.088 280.457C100.061 280.588 99.9952 280.708 99.899 280.801C99.8027 280.894 99.6806 280.956 99.5485 280.98L90.1726 282.562C89.9493 282.6 89.7458 282.713 89.5964 282.883C89.447 283.053 89.3608 283.269 89.3524 283.495C89.283 285.361 88.1599 291.452 88.816 292.744C88.8594 292.829 88.9258 292.899 89.0075 292.948C89.0891 292.996 89.1825 293.019 89.2766 293.015L98.2109 292.725C98.3229 292.722 98.4343 292.742 98.5375 292.786C98.6407 292.829 98.7333 292.895 98.8088 292.977C98.8844 293.06 98.9411 293.158 98.9751 293.265C99.0091 293.371 99.0196 293.484 99.0059 293.595L98.6841 296.067C98.6702 296.174 98.678 296.284 98.7073 296.389C98.7365 296.494 98.7866 296.592 98.8545 296.678L100.331 298.57C100.388 298.643 100.425 298.73 100.438 298.823C100.451 298.915 100.439 299.009 100.404 299.096C100.369 299.182 100.312 299.258 100.238 299.315C100.164 299.372 100.076 299.408 99.9839 299.421L90.1284 300.757C89.8943 300.788 89.6799 300.905 89.5262 301.084C89.3726 301.263 89.2904 301.492 89.2956 301.728L89.5164 312.024C89.5172 312.067 89.5265 312.109 89.5438 312.149C89.561 312.188 89.5859 312.224 89.6169 312.254C89.648 312.284 89.6846 312.307 89.7248 312.323C89.7649 312.338 89.8077 312.346 89.8508 312.345L99.7 312.169C99.7942 312.168 99.8876 312.186 99.9742 312.223C100.061 312.259 100.139 312.314 100.203 312.382C100.267 312.45 100.316 312.531 100.347 312.619C100.378 312.707 100.389 312.801 100.381 312.894C100.234 314.63 100.541 316.279 101.303 317.843C101.379 318 101.416 318.173 101.411 318.347C101.405 318.521 101.358 318.691 101.272 318.843C101.187 318.995 101.065 319.124 100.919 319.219C100.773 319.314 100.606 319.372 100.432 319.388C94.9594 319.888 89.4785 320.081 83.9893 319.968C83.8925 319.965 83.7999 319.929 83.7281 319.864C83.6563 319.799 83.6101 319.711 83.5981 319.615L83.2889 317.383C83.2787 317.299 83.2389 317.222 83.1767 317.165C83.1144 317.107 83.0336 317.073 82.9482 317.068L80.2982 316.929C80.1864 316.923 80.0787 316.883 79.9887 316.815C79.8988 316.746 79.8308 316.652 79.7934 316.544C79.5537 315.855 79.4506 315.164 79.4843 314.47C79.9953 303.519 80.5317 292.385 79.2067 282.051C79.1912 281.935 79.2057 281.816 79.2486 281.706C79.2916 281.596 79.3618 281.498 79.4527 281.421L81.3393 279.788Z" fill="#FE570B"/>
<path d="M154.145 299.547C154.085 299.397 153.987 299.265 153.861 299.164C153.734 299.063 153.584 298.997 153.424 298.972C153.265 298.946 153.101 298.962 152.95 299.019C152.799 299.076 152.665 299.171 152.561 299.295C149.772 302.649 149.148 304.868 149.116 309.527C149.099 312.759 149 315.989 148.819 319.217C148.813 319.336 148.761 319.447 148.674 319.529C148.588 319.611 148.473 319.657 148.353 319.659L147.419 319.665C147.307 319.665 147.198 319.629 147.109 319.562C147.02 319.494 146.956 319.4 146.927 319.293C146.552 317.982 145.854 316.874 144.832 315.971C144.746 315.895 144.645 315.838 144.536 315.805C144.426 315.772 144.311 315.763 144.199 315.779C144.086 315.794 143.978 315.834 143.882 315.896C143.787 315.957 143.706 316.039 143.646 316.134L142.125 318.499C142.06 318.601 141.963 318.677 141.849 318.716C141.736 318.755 141.612 318.754 141.5 318.713C140.762 318.436 140.333 317.963 140.339 317.131C140.487 301.31 140.512 288.037 140.415 277.31C140.407 276.243 140.546 275.301 140.832 274.486C140.897 274.289 141.026 274.121 141.198 274.007C143.288 272.607 144.918 272.939 146.087 275.003C146.235 275.263 146.382 275.263 146.529 275.003L147.987 272.411C148.043 272.311 148.13 272.231 148.235 272.183C148.34 272.135 148.457 272.121 148.57 272.144C148.684 272.166 148.787 272.224 148.865 272.308C148.944 272.392 148.994 272.499 149.009 272.613C149.728 278.514 148.977 285.04 148.889 290.903C148.887 290.994 148.916 291.083 148.97 291.156C149.024 291.23 149.1 291.283 149.187 291.309C149.275 291.335 149.368 291.331 149.453 291.299C149.538 291.267 149.61 291.207 149.659 291.13C153.432 285.124 157.076 279.181 160.593 273.3C160.925 272.741 161.218 272.401 161.47 272.279C161.595 272.217 161.732 272.184 161.871 272.18C162.01 272.177 162.148 272.204 162.276 272.26C162.403 272.316 162.517 272.399 162.609 272.504C162.701 272.608 162.769 272.732 162.808 272.865L163.439 275.034C163.449 275.074 163.469 275.111 163.497 275.142C163.524 275.174 163.559 275.198 163.597 275.214C163.635 275.23 163.677 275.237 163.718 275.234C163.76 275.231 163.8 275.219 163.836 275.198C165.792 274.101 167.357 272.689 169.773 273.603C169.94 273.666 170.09 273.764 170.214 273.892C170.337 274.02 170.431 274.174 170.488 274.342C170.544 274.51 170.563 274.689 170.542 274.866C170.521 275.042 170.461 275.212 170.366 275.362C167.679 279.658 165.056 283.92 162.498 288.148C161.319 290.102 161.338 292.025 162.057 294.011C164.505 300.804 166.867 307.623 169.142 314.47C169.212 314.675 169.214 314.898 169.149 315.107L168.827 316.153C168.794 316.26 168.728 316.354 168.639 316.421C168.55 316.489 168.441 316.528 168.328 316.532C167.054 316.574 165.897 316.214 164.858 315.454C164.742 315.368 164.608 315.31 164.465 315.286C164.323 315.262 164.177 315.271 164.039 315.313C163.9 315.356 163.773 315.43 163.668 315.529C163.563 315.629 163.482 315.752 163.432 315.889L162.404 318.776C162.377 318.853 162.327 318.919 162.262 318.968C162.197 319.016 162.119 319.044 162.038 319.048C161.957 319.052 161.876 319.032 161.807 318.99C161.737 318.949 161.681 318.887 161.647 318.814C158.637 312.667 156.612 305.776 154.145 299.547Z" fill="#FE570B"/>
<path d="M257.552 312.326L267.313 312.099C267.361 312.099 267.41 312.107 267.456 312.125C267.501 312.143 267.542 312.17 267.578 312.204C267.613 312.238 267.641 312.278 267.66 312.323C267.68 312.368 267.69 312.416 267.691 312.465L267.723 315.1C267.727 315.327 267.786 315.54 267.899 315.737L269.123 317.862C269.206 318.002 269.251 318.162 269.256 318.324C269.26 318.487 269.224 318.649 269.15 318.794C269.076 318.939 268.966 319.063 268.831 319.154C268.697 319.246 268.541 319.302 268.379 319.318C263.441 319.81 258.441 320.035 253.381 319.993C252.628 319.989 252.065 319.934 251.69 319.829C251.602 319.805 251.522 319.756 251.46 319.688C251.399 319.619 251.358 319.535 251.343 319.444L251.009 317.439C250.992 317.347 250.946 317.263 250.878 317.201C250.809 317.138 250.722 317.1 250.63 317.093L247.456 316.841C247.348 316.833 247.247 316.783 247.173 316.702C247.099 316.622 247.059 316.516 247.059 316.405C247.105 304.973 247.187 293.551 247.305 282.139C247.318 281.068 247.753 280.544 248.687 280.154C248.779 280.114 248.862 280.056 248.931 279.983C249 279.911 249.055 279.825 249.091 279.731C249.539 278.54 244.377 277.342 247.021 273.887C247.081 273.809 247.156 273.745 247.243 273.698C247.33 273.652 247.426 273.623 247.526 273.616C251.518 273.33 255.491 273.118 259.445 272.979C261.691 272.903 264.133 272.033 266.65 272.09C266.751 272.092 266.85 272.116 266.941 272.161C267.031 272.205 267.111 272.269 267.174 272.348C269.186 274.877 266.593 276.245 264.921 277.499C263.123 278.855 266.814 279.283 267.464 280.185C267.514 280.256 267.546 280.339 267.555 280.426C267.565 280.512 267.552 280.6 267.519 280.68C267.486 280.761 267.432 280.832 267.364 280.886C267.296 280.941 267.215 280.977 267.13 280.992L257.306 282.625C257.217 282.639 257.134 282.683 257.072 282.749C257.009 282.815 256.97 282.9 256.959 282.991C256.631 285.571 256.441 288.131 256.391 290.67C256.372 291.59 256.094 293.015 257.476 292.965C260.534 292.855 263.588 292.797 266.637 292.788C266.682 292.787 266.727 292.797 266.767 292.816C266.807 292.836 266.842 292.865 266.869 292.9C266.897 292.936 266.915 292.978 266.923 293.022C266.931 293.066 266.928 293.111 266.915 293.154L266.234 295.398C266.172 295.6 266.17 295.817 266.227 296.022C266.587 297.309 268.076 297.46 267.697 298.904C267.669 299.01 267.61 299.107 267.527 299.181C267.444 299.255 267.341 299.303 267.231 299.32L257.299 300.915C257.099 300.946 256.917 301.05 256.789 301.207C256.66 301.364 256.595 301.563 256.605 301.766L257.142 311.942C257.147 312.047 257.192 312.145 257.269 312.217C257.345 312.289 257.447 312.328 257.552 312.326Z" fill="#FE570B"/>
<path d="M443.771 274.706C443.665 274.745 443.57 274.809 443.494 274.892C443.418 274.975 443.363 275.075 443.333 275.183C443.304 275.292 443.301 275.406 443.324 275.516C443.347 275.626 443.397 275.729 443.468 275.816C444.494 277.06 444.703 278.439 444.093 279.952C444.052 280.056 443.986 280.147 443.899 280.217C443.813 280.286 443.71 280.332 443.601 280.349C441.43 280.696 439.133 280.923 437.285 281.969C429.568 286.332 429.884 300.221 432.553 306.955C434.155 311.002 441.847 312.017 445.557 312.251C445.685 312.259 445.81 312.3 445.919 312.37C446.028 312.439 446.117 312.534 446.179 312.648C446.242 312.761 446.274 312.887 446.275 313.016C446.275 313.145 446.243 313.272 446.181 313.386L444.863 315.781C444.82 315.858 444.806 315.947 444.822 316.032C444.838 316.118 444.884 316.194 444.951 316.248L446.225 317.32C446.296 317.379 446.348 317.458 446.374 317.547C446.399 317.635 446.398 317.73 446.371 317.818C446.211 318.331 445.855 318.633 445.304 318.726C439.525 319.69 431.177 320.277 426.54 315.573C421.006 309.962 420.918 299.477 421.927 292.24C423.732 279.239 430.773 270.318 445.027 272.273C445.841 272.386 446.194 272.783 445.986 273.59C445.959 273.692 445.908 273.785 445.838 273.863C445.767 273.941 445.68 274.001 445.582 274.038L443.771 274.706Z" fill="#FE570B"/>
<path d="M462.037 301.192L462.194 311.973C462.196 312.059 462.232 312.141 462.295 312.201C462.357 312.261 462.441 312.295 462.529 312.295L472.441 312.301C472.582 312.302 472.72 312.347 472.833 312.431C472.947 312.515 473.03 312.633 473.072 312.768C473.674 314.731 473.951 316.74 473.905 318.795C473.901 318.931 473.849 319.061 473.757 319.161C473.665 319.261 473.541 319.323 473.406 319.337C468.481 319.854 463.492 320.075 458.44 319.999C457.801 319.991 457.324 319.934 457.008 319.829C456.918 319.8 456.838 319.749 456.773 319.682C456.708 319.615 456.661 319.533 456.636 319.444L456.024 317.395C455.988 317.279 455.918 317.177 455.824 317.1C455.73 317.024 455.615 316.978 455.494 316.967L453.115 316.74C452.953 316.725 452.802 316.651 452.692 316.531C452.582 316.41 452.521 316.253 452.522 316.09L452.636 281.32C452.638 281.124 452.7 280.935 452.814 280.776C452.929 280.618 453.089 280.5 453.273 280.437C453.887 280.231 454.192 279.801 454.188 279.145C454.187 279.026 454.152 278.91 454.085 278.812C454.019 278.715 453.925 278.639 453.815 278.596C452.158 277.957 451.51 276.724 451.872 274.895C451.941 274.546 452.124 274.228 452.392 273.991C452.659 273.754 452.998 273.612 453.355 273.584C456.985 273.315 460.712 273.115 464.535 272.985C466.914 272.91 469.564 272.008 472.258 272.121C472.36 272.125 472.459 272.154 472.548 272.204C472.636 272.254 472.712 272.326 472.769 272.411C473.333 273.277 473.44 274.194 473.091 275.16C473.013 275.37 472.873 275.556 472.687 275.696L470.05 277.663C469.963 277.727 469.895 277.813 469.852 277.911C469.809 278.01 469.793 278.118 469.805 278.224C469.818 278.331 469.858 278.433 469.922 278.519C469.986 278.605 470.071 278.673 470.17 278.716C470.965 279.063 472.744 279.567 472.435 280.734C472.409 280.83 472.354 280.916 472.279 280.98C472.203 281.044 472.11 281.083 472.012 281.093L463.141 281.875C462.826 281.903 462.532 282.045 462.316 282.275C462.099 282.506 461.975 282.807 461.967 283.123L461.715 292.473C461.713 292.529 461.723 292.586 461.743 292.638C461.764 292.691 461.795 292.739 461.834 292.78C461.874 292.82 461.921 292.853 461.973 292.875C462.025 292.897 462.081 292.908 462.138 292.908L471.413 292.914C471.498 292.914 471.581 292.945 471.646 293.001C471.711 293.058 471.754 293.137 471.766 293.223L472.498 298.734C472.51 298.83 472.504 298.927 472.479 299.021C472.454 299.114 472.411 299.202 472.353 299.279C472.294 299.355 472.221 299.42 472.138 299.468C472.054 299.516 471.962 299.547 471.867 299.559L462.415 300.751C462.31 300.765 462.213 300.817 462.143 300.899C462.074 300.98 462.036 301.084 462.037 301.192Z" fill="#FE570B"/>
<path d="M365.955 312.131C368.652 312.408 371.35 312.402 374.051 312.112C374.656 312.049 375.237 312.118 375.792 312.32C375.9 312.359 375.997 312.424 376.075 312.511C376.152 312.598 376.206 312.704 376.234 312.818L377.489 318.202C377.519 318.329 377.521 318.461 377.495 318.589C377.47 318.717 377.417 318.838 377.341 318.944C377.266 319.05 377.168 319.139 377.056 319.204C376.943 319.27 376.818 319.311 376.688 319.325C371.758 319.842 366.725 320.073 361.589 320.018C359.835 319.999 359.627 318.467 359.173 317.206C359.143 317.126 359.09 317.055 359.019 317.002C358.949 316.95 358.864 316.918 358.775 316.91L356.605 316.74C356.398 316.724 356.205 316.629 356.065 316.476C355.926 316.322 355.85 316.121 355.854 315.914C356.11 304.498 356.239 293.307 356.239 282.341C356.239 281.188 356.605 280.463 357.444 279.775C357.523 279.709 357.585 279.624 357.624 279.528C357.663 279.432 357.677 279.328 357.665 279.226C357.653 279.124 357.615 279.026 357.556 278.943C357.496 278.859 357.416 278.792 357.324 278.748C355.599 277.911 354.956 276.503 355.393 274.524C355.45 274.265 355.589 274.032 355.789 273.86C355.989 273.687 356.24 273.584 356.504 273.565C360.735 273.263 365.074 273.065 369.52 272.973C371.419 272.928 373.439 272.084 375.628 272.279C375.728 272.287 375.825 272.315 375.914 272.362C376.003 272.408 376.081 272.472 376.145 272.55C377.571 274.297 375.344 276.232 373.937 277.323C373.856 277.386 373.79 277.465 373.743 277.556C373.696 277.646 373.67 277.745 373.666 277.846C373.571 279.624 376.221 278.949 375.704 280.671C375.676 280.768 375.62 280.856 375.542 280.923C375.465 280.99 375.37 281.034 375.268 281.049L366.006 282.449C365.828 282.475 365.665 282.563 365.545 282.698C365.426 282.833 365.356 283.005 365.35 283.186L365.009 292.568C365.007 292.612 365.015 292.657 365.031 292.699C365.047 292.741 365.071 292.78 365.102 292.812C365.134 292.844 365.171 292.87 365.212 292.888C365.254 292.905 365.298 292.914 365.343 292.914H374.82C374.863 292.914 374.906 292.923 374.946 292.94C374.985 292.957 375.021 292.982 375.05 293.013C375.08 293.044 375.103 293.082 375.117 293.122C375.132 293.162 375.138 293.205 375.136 293.248C375.026 295.203 375.453 297.042 376.417 298.765C376.453 298.831 376.473 298.906 376.474 298.982C376.476 299.057 376.458 299.132 376.424 299.2C376.39 299.268 376.34 299.326 376.278 299.37C376.216 299.414 376.145 299.442 376.07 299.452L365.665 300.852C365.569 300.864 365.481 300.912 365.419 300.985C365.356 301.058 365.322 301.152 365.324 301.249L365.596 311.746C365.6 311.843 365.638 311.935 365.704 312.005C365.77 312.076 365.859 312.12 365.955 312.131Z" fill="#FE570B"/>
<path d="M391.818 297.17C391.692 297.535 391.627 298.008 391.623 298.588C391.551 305.734 391.383 312.892 391.118 320.062C391.114 320.15 391.086 320.234 391.035 320.306C390.985 320.378 390.915 320.433 390.833 320.466C390.752 320.499 390.663 320.507 390.577 320.49C390.49 320.473 390.411 320.432 390.348 320.371C389.357 319.419 386.045 315.271 385.092 317.887C384.726 318.9 384.089 319.659 383.18 320.163C383.112 320.201 383.034 320.22 382.956 320.219C382.877 320.218 382.801 320.196 382.734 320.157C382.667 320.117 382.612 320.061 382.574 319.993C382.536 319.926 382.516 319.849 382.518 319.772C382.678 304.885 382.615 290.02 382.329 275.179C382.291 273.168 383.363 271.857 385.389 272.935C387.017 273.805 388.769 274.252 390.645 274.278C390.848 274.277 391.046 274.346 391.206 274.473C391.841 274.965 392.314 275.503 392.626 276.087C396.597 283.476 400.687 290.796 404.898 298.046C405.407 298.925 405.88 299.608 406.317 300.095C406.396 300.184 406.5 300.247 406.615 300.275C406.73 300.303 406.851 300.295 406.961 300.253C407.072 300.21 407.167 300.135 407.233 300.037C407.3 299.939 407.335 299.823 407.333 299.704L407.289 274.473C407.289 274.308 407.332 274.145 407.413 274.001C407.494 273.857 407.611 273.736 407.752 273.65C407.893 273.564 408.054 273.515 408.219 273.509C408.385 273.503 408.549 273.54 408.696 273.616C408.793 273.666 408.898 273.727 409.012 273.798C409.954 274.391 410.749 275.173 411.397 276.144C411.478 276.267 411.589 276.368 411.719 276.439C411.849 276.51 411.994 276.548 412.142 276.55C412.29 276.552 412.437 276.517 412.568 276.45C412.7 276.382 412.813 276.284 412.898 276.163C413.586 275.173 415.113 272.531 416.533 273.37C416.617 273.419 416.687 273.491 416.736 273.577C416.785 273.663 416.81 273.761 416.81 273.861C416.722 289.056 417.201 304.288 416.646 319.463C416.645 319.513 416.632 319.561 416.608 319.605C416.583 319.648 416.549 319.685 416.506 319.711C416.464 319.738 416.415 319.754 416.365 319.758C416.314 319.762 416.264 319.754 416.217 319.734L413.119 318.404C412.914 318.317 412.692 318.28 412.471 318.298C412.25 318.315 412.037 318.386 411.851 318.505C410.646 319.28 408.519 320.541 407.434 318.776C403.024 311.576 398.481 303.273 392.922 296.949C392.847 296.863 392.75 296.799 392.642 296.762C392.534 296.726 392.418 296.718 392.306 296.741C392.194 296.763 392.09 296.815 392.005 296.89C391.919 296.965 391.855 297.062 391.818 297.17Z" fill="#FE570B"/>
<path d="M312.69 318.36C311.088 318.751 309.397 317.95 309.39 316.103C309.365 309.05 309.365 301.999 309.39 294.951C309.403 289.642 309.687 281.887 309.283 275.293C309.189 273.779 309.706 272.828 311.372 273.269C311.468 273.292 311.557 273.338 311.633 273.401C311.708 273.465 311.768 273.544 311.807 273.634L312.886 276.024C312.949 276.162 313.051 276.279 313.179 276.36C313.307 276.441 313.456 276.484 313.608 276.482C313.76 276.48 313.908 276.433 314.034 276.349C314.16 276.264 314.259 276.145 314.318 276.005C315.382 273.5 317.359 272.628 320.249 273.389C320.462 273.445 320.65 273.569 320.783 273.743C320.917 273.916 320.989 274.129 320.987 274.347C320.912 282.518 320.35 291.388 320.18 298.733C320.028 305.274 319.81 311.826 319.524 318.391C319.52 318.489 319.489 318.583 319.432 318.662C319.376 318.741 319.298 318.803 319.208 318.838C319.117 318.874 319.018 318.882 318.923 318.862C318.828 318.842 318.74 318.795 318.672 318.726L315.946 316.027C315.885 315.966 315.802 315.93 315.717 315.928C315.631 315.925 315.548 315.957 315.485 316.015C314.59 316.828 313.795 318.089 312.69 318.36Z" fill="#FE570B"/>
</svg>
