<?xml version="1.0" encoding="UTF-8" standalone="no"?>
<!DOCTYPE svg PUBLIC "-//W3C//DTD SVG 1.1//EN" "http://www.w3.org/Graphics/SVG/1.1/DTD/svg11.dtd">
<svg xmlns="http://www.w3.org/2000/svg" version="1.1" viewBox="0 0 440 213">
<g stroke-width="2.00" fill="none" stroke-linecap="butt">
<path stroke="#c6450b" vector-effect="non-scaling-stroke" d="
  M 230.50 56.29
  Q 210.83 53.64 199.50 53.72
  Q 178.06 53.86 153.31 60.80
  C 152.24 61.10 151.09 61.00 150.00 60.96"
/>
<path stroke="#c6450b" vector-effect="non-scaling-stroke" d="
  M 301.47 106.50
  Q 296.85 101.37 290.36 99.06"
/>
<path stroke="#c6450b" vector-effect="non-scaling-stroke" d="
  M 287.11 97.15
  Q 285.01 93.99 281.25 93.79"
/>
<path stroke="#c6450b" vector-effect="non-scaling-stroke" d="
  M 273.15 88.98
  Q 264.94 83.64 256.05 79.63
  C 233.20 69.33 211.75 63.82 186.34 67.34
  C 183.40 67.75 178.69 67.76 175.05 68.90
  C 171.95 69.87 168.55 69.88 165.50 71.54"
/>
<path stroke="#c6450b" vector-effect="non-scaling-stroke" d="
  M 49.21 113.25
  L 49.21 108.25"
/>
</g>
<path fill="#8e330b" fill-opacity="0.996" d="
  M 230.50 56.29
  Q 210.83 53.64 199.50 53.72
  Q 178.06 53.86 153.31 60.80
  C 152.24 61.10 151.09 61.00 150.00 60.96
  Q 173.04 53.71 197.19 52.33
  Q 204.64 51.90 210.75 52.78
  C 215.46 53.47 220.14 53.53 224.30 54.57
  Q 227.41 55.35 230.50 56.29
  Z"
/>
<path fill="#fe570b" d="
  M 230.50 56.29
  Q 235.69 57.34 239.53 58.68
  C 286.71 75.14 325.00 105.38 363.54 136.06
  A 0.31 0.31 0.0 0 0 364.04 135.81
  C 363.95 130.97 363.12 125.82 363.38 121.42
  Q 364.72 99.53 378.41 83.64
  C 382.15 79.31 389.20 83.02 389.38 88.24
  C 389.52 92.13 384.23 97.18 382.41 100.83
  Q 372.18 121.41 380.42 142.66
  C 382.17 147.17 385.06 152.02 387.56 156.63
  Q 389.16 159.58 389.24 161.18
  C 389.49 166.20 383.06 169.03 379.16 166.46
  C 362.98 155.77 340.34 159.38 325.67 170.51
  C 322.26 173.09 318.65 177.31 315.43 179.91
  C 311.79 182.86 305.96 180.87 304.79 176.46
  C 303.57 171.84 307.98 169.07 310.74 166.28
  Q 322.52 154.41 338.32 149.23
  C 342.26 147.94 347.61 147.54 352.19 145.99
  A 0.59 0.59 0.0 0 0 352.38 144.97
  Q 327.83 124.45 301.47 106.50
  Q 296.85 101.37 290.36 99.06
  Q 288.37 98.57 287.11 97.15
  Q 285.01 93.99 281.25 93.79
  L 273.15 88.98
  Q 264.94 83.64 256.05 79.63
  C 233.20 69.33 211.75 63.82 186.34 67.34
  C 183.40 67.75 178.69 67.76 175.05 68.90
  C 171.95 69.87 168.55 69.88 165.50 71.54
  C 128.91 79.98 93.13 96.26 61.03 115.35
  C 56.31 118.16 51.99 118.50 49.21 113.25
  L 49.21 108.25
  C 50.65 104.82 52.72 104.11 55.68 102.38
  C 84.96 85.31 117.30 70.13 150.00 60.96
  C 151.09 61.00 152.24 61.10 153.31 60.80
  Q 178.06 53.86 199.50 53.72
  Q 210.83 53.64 230.50 56.29
  Z"
/>
<path fill="#8e330b" fill-opacity="0.996" d="
  M 273.15 88.98
  Q 259.55 82.17 245.55 76.47
  Q 235.97 72.57 225.94 70.20
  C 206.14 65.53 185.34 68.03 165.50 71.54
  C 168.55 69.88 171.95 69.87 175.05 68.90
  C 178.69 67.76 183.40 67.75 186.34 67.34
  C 211.75 63.82 233.20 69.33 256.05 79.63
  Q 264.94 83.64 273.15 88.98
  Z"
/>
<path fill="#8e330b" fill-opacity="0.996" d="
  M 287.11 97.15
  L 281.25 93.79
  Q 285.01 93.99 287.11 97.15
  Z"
/>
<path fill="#8e330b" fill-opacity="0.996" d="
  M 301.47 106.50
  Q 295.66 103.22 290.36 99.06
  Q 296.85 101.37 301.47 106.50
  Z"
/>
<path fill="#8e330b" fill-opacity="0.996" d="
  M 49.21 108.25
  L 49.21 113.25
  Q 47.93 110.73 49.21 108.25
  Z"
/>
</svg>