<svg width="26" height="26" viewBox="0 0 26 26" fill="none" xmlns="http://www.w3.org/2000/svg">
<path d="M-7.15255e-07 13C-7.15255e-07 5.81871 5.8208 -7.15255e-07 13 -7.15255e-07C20.1792 -7.15255e-07 26 5.81871 26 13C26 20.1771 20.1792 26 13 26C5.8208 26 -7.15255e-07 20.1771 -7.15255e-07 13ZM13 10.379C14.3317 10.379 15.4113 9.29946 15.4113 7.96774C15.4113 6.63603 14.3317 5.55645 13 5.55645C11.6683 5.55645 10.5887 6.63603 10.5887 7.96774C10.5887 9.29946 11.6683 10.379 13 10.379ZM15.2893 19.0464L14.9005 11.9173C14.8823 11.5837 14.6064 11.3226 14.2724 11.3226H11.7276C11.3936 11.3226 11.1177 11.5837 11.0995 11.9173L10.7107 19.0464C10.691 19.4067 10.9779 19.7097 11.3388 19.7097H14.6613C15.0221 19.7097 15.309 19.4067 15.2893 19.0464Z" fill="#1677FF"/>
</svg>
